<?xml version="1.0" encoding="utf-8"?>
<!-- Generator: Adobe Illustrator 23.0.3, SVG Export Plug-In . SVG Version: 6.00 Build 0)  -->
<svg version="1.1" id="Capa_1" xmlns="http://www.w3.org/2000/svg" xmlns:xlink="http://www.w3.org/1999/xlink" x="0px" y="0px"
	 viewBox="0 0 1200 1200" enable-background="new 0 0 1200 1200" xml:space="preserve">
<g>
	<path d="M519.959,1105.699c0.017-0.259-0.003-0.503,0.035-0.769c5.674-39.488-45.164-59.058-65.052-85.601
		c-18.482-24.666-27.152-56.616-26.183-87.244c2.104-66.496,60.321-109.738,71.298-173.095c-6.196-0.483-12.391-1.034-18.579-1.677
		c-5.966,17.296-17.454,33.759-28.388,47.578c-13.382,16.913-29.733,30.949-47.025,43.73c-16.06,11.871-33.798,21.809-48.452,35.481
		c-15.455,14.42-24.84,33.425-27.854,54.349c-5.593,38.82,19.057,71,48.927,92.639c20.581,14.91,44.015,23.498,66.17,35.661
		c11.401,6.259,41.738,21.727,40.303,39.044C496.746,1105.959,508.349,1105.927,519.959,1105.699z M385.153,993.38
		c-15.872-10.001-27.616-27.781-29.975-46.456c-2.179-17.253,5.489-38.578,22.317-45.88c4.486-1.947,9.208,2.101,6.807,6.807
		c-7.304,14.311-17.808,23.75-13.741,41.347c3.336,14.433,13.244,25.775,20.513,38.261
		C393.204,991.117,388.875,995.725,385.153,993.38z"/>
	<path d="M430.006,771.039c4.357-5.665,6.463-12.602,8.278-19.423c-7.805-1.233-15.574-2.557-23.292-3.974
		c-4.91,19.941-18.079,39.119-30.556,54.877c-13.388,16.909-29.723,30.959-47.022,43.732c-15.276,11.28-31.328,21.475-44.357,35.478
		c-14.203,15.265-21.978,34.132-24.106,54.807c-2.437,23.685,1.226,47.498,9.164,69.858c17.241,48.569,65.276,50.236,105.318,68.809
		c4.55,2.11,8.997,4.439,13.283,7.08c10.399,6.406,22.164,8.941,33.002,14.572c7.362,3.825,15.324,10.011,23.672,7.102
		c6.772-2.36,13.774-3.43,3.806-7.947c-18.17-8.185-36.29-16.642-54.343-25.273c-26.199-12.524-50.823-29.226-69.256-52.007
		c-23.904-29.543-31.134-66.911-18.282-102.991c13.959-39.187,46.694-57.521,78.831-80.264
		c16.848-11.923,32.542-25.471,46.174-41.003c10.571-12.044,17.452-25.498,24.861-39.033c-5.527-0.694-11.039-1.454-16.541-2.256
		c1.241,8.762-0.124,17.197-4.863,24.945c-4.365,7.137-13.418,15.987-22.382,15.52c-2.86-0.149-5.842-3.012-4.663-6.122
		C419.191,781.038,425.793,776.517,430.006,771.039z"/>
	<path d="M636.377,934.184c-0.407-34.596-15.287-63.328-30.696-93.376c-12.943-25.239-25.758-52.147-25.448-80.88
		c-8.071,0.49-16.147,0.856-24.225,0.972c-5.189,0.075-10.394,0.049-15.606-0.022c0.107,0.231,0.221,0.453,0.308,0.708
		c10.858,31.736,1.518,69.769-11.906,99.044c-8.093,17.649-16.888,34.934-19.017,54.52c-1.857,17.075-0.034,34.36,0.856,51.432
		c0.395,7.577-12.116,9.34-13.314,1.802c-2.588-16.287-5.362-32.907-4.105-49.44c1.264-16.62,6.462-31.978,13.34-47.05
		c7.834-17.166,17.151-33.722,20.769-52.45c3.665-18.97,0.069-37.427,1.788-56.289c0.086-0.947,0.354-1.773,0.73-2.499
		c-5.802-0.183-11.613-0.472-17.427-0.818c-0.008,30.394-16.15,57.953-31.65,83.387c-17.717,29.071-34.861,57.139-35.013,92.303
		c-0.146,33.822,12.569,67.152,38.361,89.537c13.306,11.548,28.408,20.927,39.182,35.156c2.842,3.753,6.179,7.619,8.545,11.162
		c1.152-3.991,0.027-7.56-1.499-11.009c-6.518-14.728-18.962-25.344-25.921-39.593c-2.554-5.229,2.589-10.387,7.819-7.819
		c17.154,8.424,30.193,29.541,36.062,47.15c4.463,13.393,5.421,32.241-2.712,44.771c4.344-0.189,8.687-0.403,13.029-0.643
		c-2.86-35.717,23.945-56.647,46.534-80.157C627.816,1000.504,636.753,966.212,636.377,934.184z M579.244,1006.013
		c-4.392,2.374-11.187-1.653-9.142-7.028c3.173-8.341,9.163-15.705,13.159-23.759c4.265-8.595,7.469-17.721,9.38-27.129
		c4.091-20.135,1.51-41.185-10.797-58.012c-4.134-5.652,4.962-12.341,9.556-7.373c16.328,17.653,20.596,40.939,17.393,64.267
		C606.165,966.135,597.762,996.002,579.244,1006.013z"/>
	<path d="M596.694,1101.502c1.561-5.739,6.637-10.635,11.116-14.865c11.057-10.441,24.799-17.625,38.312-24.461
		c23.808-12.044,47.387-21.296,68.284-38.503c30.476-25.094,48.825-59.473,37.002-99.189
		c-12.512-42.032-53.178-58.846-85.218-83.817c-26.095-20.337-54.716-49.462-65.99-82.303c-2.522,0.247-5.045,0.465-7.57,0.676
		c5.158,31.935,19.301,58.944,34.715,87.432c14.911,27.557,25.654,56.023,26.099,87.711c0.429,30.557-6.943,63.336-24.706,88.631
		c-18.839,26.827-54.495,43.852-52.715,80.327C582.922,1102.653,589.813,1102.115,596.694,1101.502z M701.675,898.977
		c18.42,25.305,29.583,65.461-0.248,87.671c-3.426,2.551-8.915-1.744-7.376-5.67c5.004-12.769,12.316-23.319,12.202-37.61
		c-0.115-14.318-6.339-27.114-13.808-38.995C688.711,898.431,697.714,893.535,701.675,898.977z"/>
	<path d="M429.018,217.541c-2.209,7.079,3.871,7.482,8.696,4.778c13.892-7.782,20.981-32.685,22.931-47.412
		c0.491-3.708,2.404-13.671-0.068-17.077c-3.658-5.04-4.637,2.002-6.39,4.914c-1.802,2.995-4.052,5.07-6.623,6.482
		c1.016,12.478-1.658,25.313-8.561,35.884C436.511,208.928,430.327,213.347,429.018,217.541z"/>
	<path d="M427.2,197.038c0.029-0.044,0.064-0.084,0.093-0.128c5.224-7.891,6.271-16.421,6.586-25.405
		c-6.404-0.543-14.001-2.865-20.659-6.658c-1.573,7.388-4.057,14.859-7.733,20.425c2.672,1.649,5.571,2.999,8.195,4.242
		C418.324,191.712,424.36,192.687,427.2,197.038z"/>
	<path d="M473.722,248.355c10.418,9.311,19.44,12.227,32.969,12.799c0.715,0.03,1.382,0.213,1.995,0.492
		c-15.101-20.538-12.728-64.431,6.062-79.564c3.669-2.955,11.008-0.354,8.933,5.2c-4.901,13.119-7.173,27.165-6.528,41.209
		c0.304,6.617,1.024,14.406,4.978,19.997c3.089,4.368,7.254,5.555,11.915,6.216c24.184-19.221,16.902-53.931,22.415-81.002
		c0.854-4.196,7.551-4.149,8.435,0c4.042,18.971,8.726,67.134-9.105,86.13c2.731-0.26,5.442-0.622,8.123-1.085
		c6.167-8.269,12.081-16.52,15.271-26.624c4.188-13.269,3.844-27.491,1.686-41.091c-1.117-7.042,9.116-10.237,10.932-3.014
		c5.236,20.826,5.39,44.744-4.893,63.048c5.249-2.88,10.113-6.572,14.424-11.284c13.5-14.756,15.365-36.098,8.031-54.299
		c-7.974-19.79-25.368-24.867-42.797-33.574c-11.17-5.58-17.968-15.815-17.196-27.485c-3.278,0.225-6.435,0.289-9.324,0.236
		c-3.748-0.069-8.336-0.253-13.156-0.772c0.119,0.482,0.248,0.956,0.308,1.493c3.69,32.879-29.946,31.662-51.044,43.147
		c-0.486,10.122-3.283,20.695-5.605,27.568c-2.897,8.575-7.64,20.273-14.497,29.28C460.512,234.046,466.305,241.726,473.722,248.355
		z"/>
	<path d="M697.595,1122.058c-5.832-0.1-7.809-7.78-2.931-10.821c8.956-5.583,19.284-6.618,29.435-8.823
		c10.089-2.191,19.844-4.907,29.418-8.747c-0.381-4.027-0.848-8.045-1.019-12.237c-0.024-0.572,0.052-1.106,0.193-1.605
		c-67.025,14.229-135.22,23.477-203.709,25.636c-39.937,1.259-80.607,1.643-120.426-2.04c-24.292-2.247-47.787-8.715-71.488-13.822
		c3.148,7.033,3.972,14.297,4.192,21.641c20.384,4.986,39.522,9.227,60.774,10.345c19.802,1.042,41.992,0.514,60.69,7.974
		c5.029,2.006,4.937,10.666-1.384,10.226c-22.397-1.56-44.659-2.779-67.107-3.824c-17.146-0.798-36.909-1.866-52.73-9.841
		c0.136,3.57,0.44,7.132,1.087,10.671c29.03,6.013,58.338,9.035,88.047,10.718c78.034,4.421,158.182,3.543,235.677-7.403
		c20.477-2.892,49.468-5.102,66.945-17.646c-0.075-3.871,0.129-7.754,0.411-11.678
		C738.346,1120.983,714.379,1122.347,697.595,1122.058z"/>
	<path d="M781.453,816.682c-23.75-23.654-37.168-55.479-50.017-86.437c-4.737,1.652-9.474,3.304-14.212,4.956
		c6.761,12.67,13.522,25.339,20.284,38.009c2.42,4.535,3.265,12.336-1.856,12.776c-1.803,0.155-3.457-0.932-4.897-2.029
		c-14.217-10.834-23.689-27.685-25.555-45.462c-7.39,1.879-15.113,3.332-22.209,6.032c1.128,36.76,57.87,75.3,84.092,94.904
		c22.927,17.139,47.088,34.831,59.702,60.527c11.786,24.011,11.909,52.089,8.565,78.628c-3.759,29.825-12.617,60.881-34.887,81.073
		c11.623,4.946,24.602-2.621,34.328-10.681c21.786-18.054,40.306-40.86,49.612-67.58c2.799-8.037,4.692-16.45,5.586-24.953
		c2.078-19.766-1.24-40.017-11.113-57.161C857.469,862.115,811.844,846.951,781.453,816.682z M861.678,1001.831
		c-2.802,4.988-11.601,3.011-11.166-3.024c1.139-15.807,4.938-30.601,3.85-46.677c-1.12-16.537-4.896-32.88-9.178-48.85
		c-2.029-7.568,9.23-10.544,11.645-3.21C866.63,929.834,878.238,972.346,861.678,1001.831z"/>
	<path d="M268.594,1034.175c-24.827-30.984-25.958-85.946-14.404-122.08c11.757-36.77,41.243-57.687,71.308-78.982
		c16.842-11.929,32.552-25.463,46.178-41.001c12.672-14.449,20.064-30.915,29.394-47.131c-10.958-2.168-21.803-4.482-32.482-6.92
		c-4.278,16.745-14.189,33.34-23.355,47.535c-10.341,16.014-22.447,30.692-36.383,43.715
		c-22.907,21.405-53.335,35.823-71.357,62.165c-19.614,28.671-21.764,67.639-11.451,102.411c7.133,24.05,20.228,46.092,37.631,61.33
		c9.36,8.196,19.994,14.977,31.457,19.829c1.987,0.841,29.161,9.193,28.469,6.596
		C317.286,1057.958,283.196,1052.398,268.594,1034.175z"/>
	<path d="M895.814,669.905c-7.618-6.193-15.158-12.501-22.967-18.476c-2.895,5.012-6.267,9.775-10.048,14.171
		c7.632,6.159,14.969,12.667,21.853,19.671C888.805,680.498,892.518,675.329,895.814,669.905z"/>
	<path d="M916.183,749.717c-9.924-13.343-20.68-26.554-32-39.017c-8.348,7.26-17.686,13.262-27.648,18.464
		c-5.552,2.899-9.841-3.682-6.309-8.176c6.662-8.476,14.325-15.649,21.95-22.99c-0.221-0.224-0.437-0.456-0.659-0.679
		c-6.844-6.913-14.145-13.323-21.694-19.44c-11.895,9.083-26.155,14.76-41.733,14.742c-4.71-0.005-6.081-6.156-2.324-8.581
		c9.803-6.329,20.765-10.583,30.878-16.417c-7.376-5.523-14.887-10.868-22.375-16.193c-15.752-11.201-36.585-17.502-48.166-33.604
		c-0.429-0.597-0.698-1.216-0.851-1.838c-1.901,1.677-3.935,3.201-6.087,4.515c-0.197,0.269-0.411,0.524-0.613,0.79
		c0.018,0.245,0.051,0.48,0.04,0.745c-0.952,23.343,11.064,47.351,21.681,67.494c10.837,20.561,22.823,40.572,35.834,59.829
		c8.025,11.877,16.592,23.311,25.349,34.603c1.568-0.438,3.129-0.907,4.676-1.416c3.245-1.067,6.13-2.313,8.785-3.713
		c-8.275-13.708-16.418-27.507-26.025-40.333c-3.861-5.154,4.656-11.5,8.83-6.813c10.82,12.148,20.018,25.354,28.878,38.888
		c3.685-3.299,7.18-7.039,11.017-11.201c3.146-3.413,9.215-0.746,9.124,3.779c-0.192,9.65-4.282,16.826-10.614,22.162
		c2.814,4.379,5.657,8.736,8.575,13.043c5.298-4.716,10.32-9.695,16.316-13.604c3.542-2.309,7.875,1.511,6.901,5.305
		c-1.987,7.736-7.517,14.929-14.178,20.878c5.437,6.825,11.936,13.594,15.378,21.413c1.383,3.141-0.984,8.251-5.096,6.629
		c-8.808-3.475-16.199-10.757-22.604-19.059c-1.702,1.007-3.39,1.924-5.031,2.733c-1.046,0.516-2.097,0.995-3.15,1.453
		c3.623,4.337,7.374,8.565,11.407,12.511c3.401,3.327,6.904,5.591,10.574,7.707c19.527-5.578,37.655-16.549,51.155-31.566
		c-0.146-0.443-0.3-0.878-0.388-1.383C941.956,788.401,929.941,768.215,916.183,749.717z"/>
	<path d="M814.126,922.265c-9.938-41.326-47.036-59.846-77.989-83.965c-28.276-22.033-59.495-54.394-68.444-90.602
		c-4.899,1.068-9.815,2.068-14.743,3.015c4.457,7.504,7.948,15.79,12.327,23.314c5.116,8.791,12.056,17.065,16.315,26.26
		c2.378,5.134-2.945,12.622-8.641,8.641c-9.22-6.445-15.881-17.241-21.564-26.782c-5.228-8.775-10.578-18.71-12.469-28.924
		c-7.278,1.218-14.575,2.312-21.895,3.252c8.889,15.547,17.266,30.654,30.384,44.158c16.925,17.422,36.098,31.634,56.376,44.891
		c33.515,21.911,62.294,46.11,69.963,87.65c6.866,37.194-7.634,71.321-34.143,97.25c-20.657,20.205-44.545,33.024-70.211,45.245
		c-12.519,5.961-25.189,11.713-37.405,18.285c-1.571,0.845-6.091,2.812-10.659,5.081c9.398-4.668,26.337-3.808,36.888-6.112
		c10.222-2.233,20.218-5.136,30.282-7.93c7.891-2.19,15.718-4.417,23.448-6.914c9.323-3.011,18.505-6.413,27.483-10.614
		c32.221-15.076,62.316-39.153,72.175-74.753C817.877,970.057,819.657,945.262,814.126,922.265z"/>
	<path d="M957.454,674.761c-14.065-19.228-31.647-36.965-51.537-50.166c-17.015-11.292-36.874-18.452-56.332-24.281
		c-20.554-6.158-44.945-13.382-66.112-6.219c13.369,4.971,27.857,6.922,41.151,12.201c13.673,5.43,26.94,12.132,39.51,19.766
		c2.122,1.288,4.258,2.628,6.399,3.993c0.839-1.873,1.614-3.773,2.313-5.699c2.205-6.079,11.296-3.725,9.773,2.694
		c-0.733,3.089-1.651,6.163-2.736,9.199c8.169,5.627,16.235,11.788,23.74,18.47c0.445-1.038,0.904-2.071,1.32-3.119
		c2.78-7,13.635-4.431,11.556,3.186c-0.889,3.254-1.833,6.44-2.833,9.584c5.297,5.509,10.144,11.306,14.299,17.397
		c2.874,4.214-2.806,9.749-6.996,6.996c-4.474-2.938-8.806-6.062-13.057-9.293c-2.989,6.518-6.645,12.724-11.389,18.559
		c25.158,27.624,52.519,58.976,63.572,94.968c11.109-20.77,17.977-45.752,19.948-71.431
		C974.925,704.853,968.445,689.786,957.454,674.761z"/>
	<path d="M369.201,723.921c8.212,4.202,17.367,6.146,26.43,7.87c53.748,10.221,108.685,14.182,163.345,11.888
		c31.617-1.327,63.148-4.747,94.31-10.255c23.62-4.175,58.565-6.321,77.845-22.321c7.023-5.829,0.518-15.29-6.669-16.101
		c-0.272-0.031-0.553-0.034-0.827-0.057c-0.349-0.359-0.699-0.717-1.059-1.066c-0.2,0.325-0.423,0.631-0.633,0.948
		c-13.203-0.412-28.712,6.891-41.282,9.885c-15.159,3.61-30.442,6.699-45.814,9.257c-30.539,5.081-61.431,7.864-92.379,8.556
		c-30.573,0.684-61.799,0.084-92.039-4.819c-13.909-2.255-27.745-5.584-41.169-10.083c-10.913-3.663-22.92-12.248-34.222-13.839
		c-0.028-0.004-0.057-0.008-0.085-0.012C345.153,689.593,346.923,712.521,369.201,723.921z"/>
	<path d="M806.258,789.012c5.755-0.228,11.539-0.692,17.283-1.457c-5.604-7.442-11.09-14.97-16.364-22.648
		c-27.009-39.326-54.613-83.142-60.194-131.518c-7.896,5.016-17.279,8.309-26.561,7.141c-9.282-1.168-18.229-7.54-20.555-16.6
		c-10.945,11.353-16.412,27.766-14.461,43.414c0.103,0.832,0.267,1.737,0.904,2.282c0.672,0.574,1.65,0.562,2.534,0.52
		c9.119-0.44,28.858-0.607,36.402,4.029c11.313,6.951,20.083,18.676,21.275,32.117c1.124,12.677-1.859,23.886,4.289,35.703
		c5.644,10.838,12.639,20.8,18.935,31.221c10.373,17.174,23.044,33.148,39.19,45.233c14.661,10.974,30.752,19.822,45.772,29.922
		c0.856-0.219,1.796-0.329,2.865-0.237c4.863,0.42,9.765,0.469,14.659,0.17c-6.217-6.463-11.543-13.628-15.04-17.983
		c-0.349-0.434-0.697-0.868-1.046-1.302c-8.463,1.251-17.12,0.876-25.946-0.993c-7.066-1.497-5.482-13.619,1.716-12.678
		c4.602,0.601,9.127,0.701,13.58,0.387c-4.346-5.442-8.669-10.903-12.945-16.401c-9.878,0.805-19.265,0.667-26.293,0.277
		C799.455,799.232,799.421,789.282,806.258,789.012z"/>
	<path d="M871.762,807.955c0.327-0.18,0.622-0.393,0.943-0.579c-2.782-4.334-5.37-8.583-7.814-12.397
		c-0.481-0.75-0.946-1.51-1.423-2.264c-3.833,1.563-7.941,2.813-12.186,3.797c4.022,5.097,8.055,10.189,12.075,15.297
		C866.201,810.73,869.009,809.47,871.762,807.955z"/>
	<path d="M565.164,530.293c3.041,17.942,3.131,36.382,6.273,54.418c2.983,17.125,7.405,34.068,13.272,50.376
		c5.788,16.089,12.815,32.205,22.752,46.03c6.756,9.401,14.11,18.41,16.472,29.713c5.735-0.572,11.456-1.211,17.151-1.959
		c8.775-1.153,19.076-2.505,29.175-4.82c-48.048-28.398-73.868-83.393-86.288-137.491c-12.561-54.714-16.406-115.433-11.814-171.761
		c-5.826,0.342-11.664,0.319-17.504,0.199c-1.719,20.06,0.444,40.408-3.837,60.175c-1.068,4.932-8.502,4.886-9.594,0
		c-4.454-19.92-3.513-40.387-0.609-60.473c-1.206-0.014-2.412-0.028-3.618-0.027c-4.846,0.003-9.69-0.03-14.533-0.093
		c0.344,0.638,0.569,1.399,0.58,2.321c0.463,38.967,2.696,77.94,1.393,116.916c-1.227,36.713-5.59,76.318-21.69,109.551
		c-2.668,5.508-10.57,1.519-9.262-4.041c8.804-37.422,16.431-73.15,17.992-111.845c1.486-36.867,0.103-73.739,2.542-110.581
		c0.065-0.986,0.369-1.795,0.807-2.459c-4.878-0.126-9.752-0.351-14.625-0.649c5.065,57.306,1.338,119.319-11.14,175.245
		c-11.127,49.869-33.386,101.048-74.498,131.064c13.287,3.304,26.872,5.615,40.43,7.348c12.153-15.082,19.17-32.429,29.325-48.746
		c2.234-3.59,7.254-1.214,6.473,2.824c-3.36,17.376-12.951,33.484-23.802,47.322c4.127,0.44,8.242,0.84,12.336,1.213
		c43.602,3.967,88.425,5.319,132.401,1.866c-5.193-11.741-15.249-21.104-21.926-31.865c-8.883-14.315-15.26-31.031-20.609-47.065
		c-10.371-31.086-18.245-69.804-12.992-102.707C556.931,525.673,564.389,525.721,565.164,530.293z"/>
	<path d="M803.878,625.178c10.891,5.593,20.788,12.588,30.817,19.577c5.633,3.926,11.222,7.929,16.728,12.041
		c4.166-3.873,7.911-8.182,11.179-12.843c-3.124-2.154-6.308-4.233-9.58-6.199c-13.243-7.955-27.293-15.279-41.983-20.141
		c-12.389-4.1-24.642-7.251-36.118-13.258c-0.779,1.334-1.625,2.62-2.528,3.838c-0.091,0.123-0.19,0.243-0.282,0.366
		c0.833,0.068,1.665,0.31,2.445,0.816C783.913,615.437,793.979,620.095,803.878,625.178z"/>
	<path d="M572.703,92.492c-3.533-8.366-24.59-9.868-32.133-10.406c-12.022-0.857-35.038-0.225-32.473,17.52
		C510.199,114.149,581.7,113.8,572.703,92.492z"/>
	<path d="M778.626,580.057c22.997-8.263,50.96-2.165,73.583,4.487c22.148,6.512,45.007,14.759,64.045,28.076
		c21.963,15.364,41.042,35.172,56.288,57.175c2.025,2.922,4.121,6.062,6.193,9.342c-4.103-28.712-14.935-55.786-33.496-76.041
		c-21.533-23.499-54.391-35.036-84.95-40.912c-28.303-5.442-62.421-5.384-87.544,10.876c2.205,2.083,3.992,4.631,5.148,7.346
		C778.139,580.29,778.358,580.154,778.626,580.057z"/>
	<path d="M545.654,66.902c1.011,0.136,1.825,0.588,2.449,1.229c1.143-0.088,2.307-0.141,3.481-0.17
		c-0.789-5.902-1.394-11.822-1.736-17.77c-3.768-0.101-7.536-0.163-11.305-0.191c-1.637,5.608-3.14,11.287-4.451,17.005
		C538.238,66.484,542.191,66.436,545.654,66.902z"/>
	<path d="M470.439,351.29c-0.465,1.592-0.913,3.192-1.296,4.817c-2.158,9.16-1.847,17.513,1.292,26.038
		c2.274,0.812,3.686,2.685,4.4,4.882c0.346,0.029,0.695,0.07,1.042,0.102c-0.462-10.783-0.348-22.093,2.585-31.608
		C475.621,354.396,472.929,353.001,470.439,351.29z"/>
	<path d="M578.421,308.09c-0.212-0.026-0.424-0.024-0.636-0.033c-6.803-4.959-14.919-8.119-21.96-8.06
		c-1.014-17.826-4.337-36.813-13.099-38.589c-6.23-1.263-20.193,4.703-29.409,1.77c-1.54,12.297-4.735,23.97-7.803,35.813
		c0.34-1.312-22.597,6.36-25.915,11.628c-5.498,8.727-4.414,19.993,1.802,28.034c17.308,22.39,78.691,17.589,100.541,7.824
		c12.46-5.568,15.571-16.654,6.634-26.822c1.402,0.042,3.999,0.253,5.326-0.169c21.024-6.696,45.957-6.18,67.816-4.084
		c18.49,1.773,40.346,11.561,47.136,29.862c-0.443,8.244-3.096,16.338-6.905,24.219c-4.355,11.424-11.282,22.736-17.567,33.298
		c-9.24,15.528-16.269,30.733-16.847,49.15c-0.511,16.264,0.58,33.213,5.497,48.861c-0.003-0.225,0.018-0.449,0.017-0.674
		c0.01,0.079,0.017,0.157,0.028,0.236c2.773,21.094,10.075,41.929,21.648,59.835c2.023,3.13,4.243,6.338,6.634,9.527
		c-11.039-8.077-20.914-17.872-29.308-28.897c-15.512-20.373-22.988-45.96-24.104-71.654c-5.604,20.377-6.656,41.618,0.048,63.156
		c9.872,31.718,36.803,68.128,71.012,74.964c0.482,0.096,0.89,0.256,1.318,0.397c6.303,0.137,12.21,1.165,18.544,1.661
		c0.548,0.043,1.069,0.026,1.597,0.025c4.023-5.329,6.994-11.679,8.181-18.161c-4.647-0.993-9.19-2.296-13.642-3.825
		c-11.581-11.189-22.701-21.52-31.247-36.324c-10.524-18.229-16.992-38.805-18.172-59.86c-1.168-20.845,3.429-40.634,11.725-59.598
		c11.945-19.064,25.087-37.666,30.911-59.504c10.811-40.541-14.016-70.162-51.379-82.328c-17.174-5.592-36.752-8.309-54.802-6.787
		c-10.135,0.855-19.551,2.24-28.386,7.798C591.509,292.131,583.521,301.756,578.421,308.09z M563.234,322.219
		c-6.964,19.582-49.52,11.506-63.716,5.571c-5.367-2.244-5.123-10.61,1.446-10.68c10.551-0.112,20.967,2.328,31.555,2.105
		c8.96-0.189,18.274-5.831,26.763-3.958C562.107,315.882,564.222,319.441,563.234,322.219z"/>
	<path d="M597.355,384.137c0.63-0.216,1.227-0.311,1.792-0.324c3.872-7.126,6.065-20.75,4.769-31.963
		c-6.001,4.574-14.784,6.867-23.591,7.984c1.104,9.23,0.676,19.117,0.557,28.339C586.365,387.3,591.846,386.022,597.355,384.137z"/>
	<path d="M555.908,360.782c-9.263-0.177-18.527-0.072-27.789-0.068c2.406,7.809,1.774,17.498,0.796,25.335
		c-0.147,1.178-0.279,2.432-0.429,3.71c1.664,0.007,3.329,0.019,4.993,0.021c11.153,0.017,21.963,0.419,32.66-0.12
		c-0.077-9.323-0.596-19.404,0.421-28.862C562.512,360.889,558.835,360.838,555.908,360.782z"/>
	<path d="M494.816,389.108c6.069,0.24,12.146,0.393,18.224,0.496c0.418-1.823,0.88-3.641,1.145-5.42
		c0.998-6.707-0.173-15.951,2.122-23.567c-0.856-0.015-1.713-0.012-2.569-0.032c-7.539-0.178-15.936-0.444-23.976-1.92
		c2.129,9.462,1.643,20.036,1.521,30.205C492.483,388.974,493.667,389.063,494.816,389.108z"/>
</g>
</svg>
