<?xml version="1.0" encoding="utf-8"?>
<!-- Generator: Adobe Illustrator 23.0.3, SVG Export Plug-In . SVG Version: 6.00 Build 0)  -->
<svg version="1.1" id="Capa_1" xmlns="http://www.w3.org/2000/svg" xmlns:xlink="http://www.w3.org/1999/xlink" x="0px" y="0px"
	 viewBox="0 0 1200 1200" enable-background="new 0 0 1200 1200" xml:space="preserve">
<g>
	<path d="M953.831,590.263c22.211,30.167,30.325,69.875,29.532,106.751c-0.793,36.898-10.176,76.199-33.09,105.822
		c-11.695,15.095-28.875,26.155-46.44,33.317c-10.924,4.465-24.093,8.975-36.989,10.086c5.304,5.145,10.199,10.788,14.46,17.293
		c19.084,29.147,21.169,67.722,9.859,100.133c-9.565,27.424-27.991,52.174-51.494,69.603c-19.106,15.389-42.836,23.549-67.496,29.26
		c-2.198,0.499-4.374,0.997-6.573,1.496c1.179,12.035,1.065,24.274,1.156,36.309c0.023,2.629-0.227,4.986-0.725,7.139
		c-4.034,17.406-1.088,16.681-21.713,21.192c-57.047,12.466-115.341,18.948-173.68,20.67c-41,1.201-82.114,0.884-123.047-1.836
		c-24.727-1.655-52.22-2.584-76.788-9.406c-3.898,1.632-8.726,0.793-10.947-3.536c-0.567-0.204-1.156-0.408-1.723-0.612
		c-5.78-2.266-6.369-8.703-3.422-12.284c-0.068-8.59,1.677-17.746,1.473-26.336c-0.181-6.799-0.748-13.757-0.771-20.648
		c-27.946-0.567-56.956-8.567-80.392-23.231c-56.367-35.334-75.587-128.237-41.567-184.808
		c17.157-28.535,46.191-42.972,70.623-64.005c14.029-12.103,26.88-25.974,37.555-41.114c8.749-12.375,14.732-25.928,21.803-39.074
		c-26.314-3.286-20.421-44.718-4.918-58.747c0.612-0.544,1.337-0.997,2.153-1.36c0.476-1.655,1.7-3.105,3.694-3.672
		c14.845-4.352,30.076,0.952,44.083-7.253c11.355-6.641,20.33-16.749,28.694-26.722c11.083-13.214,22.257-25.475,31.096-39.391
		c3.422-10.018,6.301-20.33,8.703-30.801c5.848-25.498,8.431-51.54,10.199-77.604c1.292-18.789,10.154-38.847,6.165-57.795
		c-4.306-20.557-27.084-10.72-32.977-26.608c-7.117-19.106-4.238-39.165,5.168-56.843c-1.088-11.718,8.499-22.755,24.274-18.97
		c0.181,0.023,0.317,0.091,0.476,0.136c4.329-12.556,11.332-24.047,14.075-37.102c-18.676,3.513-42.36-20.512-51.653-38.983
		c-5.1,3.309-10.992,4.782-17.746,3.128c-10.992-2.72-18.064-12.556-12.874-23.322c1.201-2.516,2.878-4.714,4.692-6.822
		c-5.19-0.816-11.128-4.533-14.619-6.709c-2.742-1.7-5.417-3.649-7.661-5.961c-2.108,0.725-4.442,0.929-6.981,0.476
		c-25.679-4.397-4.873-45.624,7.026-54.395c0.725-0.544,1.473-0.793,2.198-0.884c14.709-1.564,24.478,27.266,40.298,17.542
		c2.47-1.541,3.966-6.822,6.051-9.043c3.4-3.581,7.615-5.372,12.579-4.556c7.842,1.315,12.148,6.074,14.233,12.42
		c5.009-2.742,10.63-4.556,16.115-6.459c9.202-3.173,20.126-6.21,17.996-18.109c-0.476-2.742,0.068-4.941,1.179-6.595
		c-9.927-3.218-17.928-9.157-17.701-20.285c0.272-13.599,12.942-23.413,26.812-28.24c1.564-8.681,4.397-17.021,5.508-25.838
		c0.453-3.74,2.652-6.21,6.505-6.505c7.479-0.589,14.913-0.635,22.393-0.521c3.898,0.068,6.822,3.173,6.981,6.981
		c0.34,8.499,1.428,16.863,2.765,25.226c12.42,2.878,22.914,10.312,22.71,24.75c-0.204,15.072-12.058,22.438-25.385,25.747
		c1.7,7.434,3.626,11.876,12.352,15.775c9.111,4.057,18.177,7.298,26.2,13.44c15.775,12.058,23.911,31.255,24.478,50.882
		c1.043,36.785-31.187,63.711-65.75,67.246c3.921,4.964,6.595,11.514,8.295,18.494c12.126-14.211,31.119-23.118,49.409-23.662
		c26.427-0.748,52.673-2.448,77.423,8.817c25.679,11.695,40.434,35.697,42.791,63.461c2.448,28.875-11.99,54.713-26.631,78.42
		c-14.415,23.39-32.773,49.59-26.994,78.601c4.828,24.319,33.838,62.759,62.351,53.557c1.156-0.363,2.198-0.453,3.173-0.408
		c26.858-28.875,74.136-27.606,109.969-19.854C897.6,545.07,932.299,560.981,953.831,590.263z M944.765,775.026
		c10.63-19.877,17.225-43.811,19.106-68.402c-4.896-16.001-11.106-30.416-21.622-44.808c-13.486-18.404-30.303-35.38-49.364-48.027
		c-16.273-10.811-35.289-17.678-53.919-23.254c-19.673-5.893-43.04-12.806-63.303-5.938c12.806,4.76,26.676,6.618,39.391,11.672
		c13.1,5.19,25.792,11.604,37.827,18.925c2.04,1.224,4.08,2.516,6.142,3.83c0.793-1.813,1.541-3.626,2.198-5.462
		c2.13-5.825,10.834-3.558,9.361,2.584c-0.703,2.946-1.587,5.893-2.606,8.794c7.819,5.394,15.525,11.287,22.733,17.701
		c0.408-0.997,0.861-1.995,1.247-2.992c2.674-6.709,13.055-4.238,11.06,3.037c-0.839,3.128-1.745,6.165-2.697,9.179
		c5.077,5.281,9.701,10.834,13.689,16.659c2.742,4.034-2.697,9.338-6.709,6.709c-4.284-2.81-8.431-5.802-12.488-8.907
		c-2.878,6.233-6.369,12.194-10.902,17.769C907.98,710.545,934.181,740.553,944.765,775.026z M956.687,657.056
		c1.949,2.81,3.944,5.802,5.938,8.953c-3.944-27.492-14.301-53.421-32.071-72.799c-20.625-22.506-52.084-33.544-81.344-39.187
		c-27.107-5.19-59.767-5.145-83.814,10.426c2.108,1.995,3.808,4.442,4.918,7.026c0.249-0.113,0.453-0.227,0.703-0.34
		c22.03-7.91,48.797-2.063,70.465,4.306c21.192,6.233,43.086,14.12,61.308,26.88C923.823,617.03,942.091,636.001,956.687,657.056z
		 M931.62,793.951c-0.136-0.431-0.272-0.839-0.363-1.337c-3.853-21.985-15.367-41.318-28.535-59.019
		c-9.497-12.783-19.786-25.43-30.643-37.374c-7.978,6.958-16.931,12.715-26.472,17.678c-5.304,2.788-9.406-3.513-6.029-7.819
		c6.369-8.114,13.712-14.981,21.01-22.007c-0.204-0.227-0.408-0.453-0.635-0.657c-6.55-6.618-13.531-12.76-20.761-18.608
		c-11.4,8.703-25.044,14.12-39.958,14.12c-4.51-0.023-5.825-5.893-2.221-8.227c9.383-6.051,19.877-10.131,29.555-15.707
		c-7.049-5.304-14.256-10.426-21.418-15.503c-15.095-10.743-35.04-16.772-46.123-32.184c-0.408-0.567-0.657-1.156-0.816-1.768
		c-1.813,1.609-3.762,3.082-5.825,4.329c-0.181,0.249-0.385,0.499-0.589,0.748c0.023,0.249,0.045,0.476,0.045,0.725
		c-0.907,22.347,10.584,45.329,20.761,64.617c10.38,19.696,21.849,38.847,34.314,57.296c7.683,11.355,15.865,22.302,24.251,33.113
		c1.519-0.408,3.014-0.861,4.488-1.36c3.105-1.02,5.87-2.198,8.409-3.536c-7.933-13.123-15.707-26.336-24.909-38.621
		c-3.694-4.941,4.442-11.015,8.454-6.527c10.358,11.627,19.152,24.274,27.651,37.238c3.513-3.173,6.867-6.754,10.539-10.72
		c3.014-3.286,8.817-0.725,8.726,3.604c-0.181,9.247-4.08,16.115-10.154,21.214c2.697,4.193,5.417,8.363,8.205,12.488
		c5.077-4.51,9.882-9.27,15.639-13.01c3.377-2.221,7.525,1.451,6.595,5.077c-1.904,7.411-7.207,14.301-13.576,19.99
		c5.213,6.527,11.423,13.01,14.732,20.489c0.975,2.244-0.023,5.508-2.198,6.391c-0.771,0.34-1.677,0.363-2.697-0.045
		c-8.431-3.309-15.503-10.29-21.622-18.245c-1.632,0.975-3.264,1.859-4.828,2.629c-0.997,0.499-2.017,0.952-3.014,1.383
		c3.468,4.148,7.049,8.205,10.924,11.99c3.241,3.173,6.595,5.349,10.108,7.366c3.921-1.133,7.774-2.47,11.559-4.034
		C908.434,814.259,921.42,805.306,931.62,793.951z M877.655,931.526c1.972-18.925-1.201-38.326-10.652-54.735
		c-20.489-35.584-64.187-50.112-93.265-79.1c-22.755-22.642-35.584-53.103-47.891-82.749c-4.533,1.586-9.089,3.173-13.621,4.737
		c6.482,12.148,12.964,24.274,19.424,36.4c2.312,4.352,3.128,11.808-1.768,12.239c-1.723,0.136-3.309-0.907-4.692-1.949
		c-13.621-10.38-22.687-26.518-24.478-43.516c-7.071,1.791-14.46,3.173-21.26,5.757c1.088,35.198,55.415,72.096,80.528,90.863
		c21.939,16.409,45.08,33.362,57.16,57.954c11.264,23.005,11.4,49.885,8.182,75.292c-3.581,28.558-12.08,58.294-33.385,77.627
		c11.128,4.737,23.549-2.516,32.864-10.245c20.852-17.271,38.575-39.119,47.505-64.685
		C874.98,947.709,876.794,939.663,877.655,931.526z M872.533,671.879c3.989-4.556,7.525-9.519,10.698-14.709
		c-7.298-5.938-14.528-11.967-22.007-17.701c-2.765,4.805-5.984,9.361-9.61,13.576C858.911,658.938,865.937,665.17,872.533,671.879z
		 M860.203,789.35c0.295-0.181,0.589-0.385,0.884-0.567c-2.652-4.148-5.122-8.205-7.479-11.854c-0.453-0.725-0.907-1.451-1.36-2.176
		c-3.672,1.496-7.593,2.697-11.672,3.626c3.853,4.896,7.729,9.768,11.582,14.664C854.877,792.002,857.551,790.801,860.203,789.35z
		 M846.604,827.812c4.669,0.408,9.361,0.453,14.029,0.159c-5.938-6.187-11.038-13.055-14.392-17.203
		c-0.34-0.431-0.657-0.839-0.997-1.247c-8.114,1.179-16.387,0.839-24.841-0.952c-0.748-0.159-1.405-0.453-1.949-0.816
		c-4.42-3.06-2.538-12.148,3.581-11.332c4.42,0.567,8.749,0.68,13.01,0.363c-4.17-5.213-8.295-10.426-12.398-15.707
		c-9.451,0.771-18.449,0.657-25.181,0.272c-6.505-0.363-6.527-9.882,0-10.131c5.53-0.227,11.06-0.68,16.568-1.405
		c-5.372-7.117-10.63-14.324-15.684-21.69c-25.86-37.646-52.288-79.599-57.636-125.925c-7.547,4.805-16.523,7.955-25.43,6.845
		c-8.885-1.111-17.452-7.207-19.673-15.888c-10.471,10.856-15.707,26.586-13.848,41.567c0.113,0.793,0.272,1.655,0.861,2.176
		c0.657,0.544,1.587,0.544,2.425,0.499c8.749-0.408,27.651-0.589,34.858,3.853c10.834,6.663,19.242,17.882,20.376,30.756
		c1.065,12.148-1.791,22.869,4.102,34.178c5.417,10.38,12.103,19.922,18.132,29.895c9.927,16.455,22.075,31.731,37.533,43.312
		c5.372,4.012,10.902,7.729,16.523,11.31c9.111,5.847,18.404,11.355,27.288,17.339C844.678,827.835,845.584,827.722,846.604,827.812
		z M851.432,632.329c-2.992-2.063-6.051-4.057-9.179-5.938c-12.692-7.615-26.132-14.641-40.207-19.288
		c-11.854-3.921-23.594-6.935-34.564-12.692c-0.748,1.269-1.564,2.516-2.425,3.672c-0.091,0.113-0.181,0.227-0.272,0.34
		c0.793,0.068,1.586,0.317,2.334,0.793c8.975,5.802,18.608,10.267,28.082,15.14c10.426,5.349,19.9,12.035,29.51,18.744
		c5.394,3.74,10.743,7.593,16.001,11.514C844.7,640.919,848.304,636.794,851.432,632.329z M802.589,966.249
		c6.006-21.69,7.706-45.443,2.425-67.45c-9.519-39.573-45.035-57.296-74.68-80.392c-27.062-21.101-56.956-52.084-65.524-86.761
		c-4.692,1.02-9.406,1.994-14.12,2.901c4.261,7.185,7.615,15.117,11.808,22.302c4.896,8.431,11.536,16.341,15.616,25.158
		c2.289,4.918-2.81,12.08-8.273,8.273c-8.817-6.165-15.208-16.523-20.648-25.656c-5.009-8.386-10.131-17.905-11.944-27.674
		c-6.958,1.156-13.939,2.198-20.965,3.105c8.522,14.891,16.545,29.351,29.102,42.27c16.205,16.681,34.564,30.303,53.987,42.995
		c32.071,20.965,59.631,44.151,66.974,83.905c6.573,35.629-7.298,68.289-32.683,93.129c-19.786,19.333-42.655,31.617-67.224,43.312
		c-11.99,5.712-24.115,11.219-35.81,17.497c-1.518,0.816-5.847,2.697-10.222,4.873c8.998-4.465,25.226-3.649,35.334-5.848
		c9.768-2.153,19.356-4.918,28.988-7.593c7.547-2.108,15.049-4.238,22.438-6.618c8.93-2.878,17.724-6.142,26.314-10.177
		C764.354,1023.386,793.161,1000.314,802.589,966.249z M749.01,1108.606c-0.091-3.717,0.113-7.434,0.385-11.196
		c-14.664,9.768-37.623,11.083-53.693,10.811c-5.576-0.113-7.479-7.457-2.81-10.358c8.59-5.349,18.472-6.346,28.195-8.454
		c9.655-2.108,18.993-4.692,28.15-8.386c-0.363-3.853-0.793-7.706-0.975-11.718c-0.023-0.544,0.068-1.043,0.204-1.519
		c-64.187,13.621-129.484,22.461-195.053,24.546c-38.235,1.201-77.173,1.564-115.295-1.972c-23.254-2.153-45.76-8.341-68.447-13.236
		c3.014,6.754,3.808,13.689,4.012,20.738c19.514,4.76,37.85,8.817,58.18,9.905c18.97,0.997,40.207,0.476,58.112,7.615
		c4.828,1.927,4.737,10.222-1.315,9.791c-21.464-1.473-42.768-2.652-64.255-3.649c-16.432-0.771-35.334-1.791-50.497-9.428
		c0.136,3.422,0.431,6.845,1.043,10.222c27.787,5.757,55.869,8.658,84.313,10.267c74.703,4.238,151.446,3.377,225.627-7.094
		C704.519,1122.726,732.261,1120.618,749.01,1108.606z M709.528,995.894c29.192-24.047,46.757-56.956,35.425-94.988
		c-11.967-40.23-50.905-56.322-81.593-80.233c-24.977-19.469-52.378-47.369-63.167-78.805c-2.425,0.227-4.828,0.453-7.253,0.635
		c4.941,30.575,18.472,56.435,33.249,83.724c14.256,26.382,24.546,53.647,24.977,83.973c0.408,29.26-6.641,60.651-23.662,84.857
		c-18.018,25.702-52.174,41.998-50.452,76.924c6.595-0.476,13.191-0.997,19.786-1.587c1.496-5.485,6.346-10.177,10.63-14.234
		c10.584-9.995,23.753-16.863,36.694-23.413C666.941,1021.211,689.515,1012.349,709.528,995.894z M734.482,599.216
		c3.853-5.1,6.709-11.196,7.842-17.384c-29.442-6.301-55.053-24.229-73.343-48.253c-14.845-19.514-22.007-44.015-23.073-68.606
		c-5.372,19.514-6.369,39.845,0.045,60.47c9.451,30.371,35.244,65.229,67.994,71.779c0.453,0.091,0.839,0.227,1.247,0.363
		c6.051,0.136,11.695,1.133,17.769,1.609C733.484,599.216,733.983,599.216,734.482,599.216z M722.764,372.025
		c7.661-28.716-2.81-60.288-29.985-74.182c-12.602-6.437-27.22-9.179-41.227-10.131c-9.904-0.68-20.489,0.793-30.62,0.453
		c2.765,5.508,5.689,10.947,8.567,16.409c23.367-8.069,54.985-4.986,68.516,17.543c9.791,16.296,6.913,32.275-0.408,47.415
		c-4.17,10.947-10.811,21.781-16.817,31.889c-8.839,14.868-15.571,29.419-16.137,47.052c-0.476,15.571,0.567,31.799,5.281,46.78
		c-0.204-16.16,4.556-32.252,12.307-47.369C695.249,422.476,715.307,400.038,722.764,372.025z M718.616,699.983
		c10.471-4.737,5.553-13.236-1.269-19.854c-1.745,2.856-3.921,5.394-6.119,7.389c-18.154,16.432-47.437,20.036-70.555,22.959
		c-86.557,10.947-188.91,10.38-269.869-25.815c-1.383-0.612-2.788-1.247-4.306-1.247c-0.159,0-0.295,0.023-0.453,0.023
		c-3.354,0.317-5.757,3.853-6.187,7.275c-0.816,6.437,3.332,12.692,8.749,16.251c5.44,3.536,11.967,4.941,18.336,6.188
		c89.276,17.474,182.859,22.211,272.294,3.15C678.636,712.154,700.394,708.256,718.616,699.983z M685.503,355.729
		c2.493-12.67-5.87-23.141-16.251-29.441c-7.457-4.533-15.956-7.094-24.41-9.315c-2.448-0.657-5.009-1.269-7.502-0.839
		c-3.4,0.612-27.016,15.117-29.578,11.808c1.428,1.836,2.448,3.944,2.924,6.323c12.398,12.942,12.579,34.858,6.981,50.86
		c-2.561,7.343-31.051,22.098-31.436,17.678c4.51,50.157,3.558,99.997,15.231,149.451c2.674,11.31,5.893,22.393,9.768,33.091
		c0.544,0.499,0.997,1.111,1.337,1.926c8.545,20.738,24.365,39.255,40.797,54.191c5.032,4.601,10.584,8.658,16.296,12.579
		c-0.929-18.018,4.034-37.261,15.367-48.072c-18.653-11.128-33.725-30.189-43.902-47.891
		c-17.588-30.529-20.852-65.954-10.358-99.453c5.168-16.523,12.851-32.297,21.645-47.143c9.293-15.661,21.237-29.804,29.872-45.805
		C683.69,362.438,684.823,359.128,685.503,355.729z M639.335,694.634c8.409-1.065,18.268-2.312,27.923-4.442
		c-45.987-26.291-70.714-77.151-82.613-127.195c-12.012-50.633-15.707-106.796-11.31-158.902
		c-5.576,0.317-11.174,0.295-16.749,0.181c-1.655,18.562,0.408,37.397-3.672,55.665c-1.043,4.578-8.159,4.533-9.202,0
		c-4.261-18.426-3.354-37.351-0.567-55.937c-1.156-0.023-2.312-0.023-3.468-0.023c-4.646,0-9.293-0.023-13.916-0.091
		c0.317,0.589,0.544,1.292,0.544,2.153c0.453,36.037,2.584,72.097,1.337,108.156c-1.179,33.952-5.349,70.601-20.761,101.334
		c-2.561,5.1-10.131,1.405-8.862-3.74c8.431-34.609,15.729-67.654,17.225-103.464c1.405-34.088,0.091-68.198,2.425-102.286
		c0.068-0.907,0.363-1.655,0.771-2.266c-4.669-0.136-9.338-0.34-14.007-0.612c4.85,53.013,1.292,110.377-10.652,162.121
		c-10.652,46.123-31.98,93.469-71.326,121.234c12.715,3.06,25.724,5.213,38.711,6.799c11.627-13.939,18.336-29.985,28.059-45.08
		c2.153-3.332,6.958-1.133,6.21,2.606c-3.218,16.069-12.398,30.983-22.801,43.766c3.966,0.408,7.887,0.793,11.808,1.133
		c41.748,3.672,84.675,4.918,126.786,1.722c-4.986-10.856-14.619-19.514-21.01-29.487c-8.499-13.236-14.596-28.694-19.718-43.516
		c-9.927-28.762-17.474-64.594-12.443-95.033c0.703-4.261,7.842-4.216,8.59,0c2.901,16.613,2.992,33.657,6.006,50.361
		c2.856,15.843,7.094,31.504,12.692,46.599c5.553,14.868,12.284,29.781,21.781,42.564c6.482,8.703,13.531,17.044,15.775,27.492
		C628.411,695.926,633.873,695.337,639.335,694.634z M604.93,996.279c21.69-22.574,30.257-55.415,29.895-86.081
		c-0.385-33.113-14.641-60.628-29.396-89.39c-12.375-24.183-24.659-49.93-24.365-77.445c-7.729,0.476-15.457,0.816-23.186,0.929
		c-4.964,0.068-9.95,0.045-14.936-0.023c0.091,0.227,0.204,0.431,0.295,0.68c10.38,30.393,1.451,66.793-11.4,94.829
		c-7.751,16.908-16.183,33.453-18.222,52.197c-1.768,16.341-0.023,32.909,0.839,49.25c0.363,7.253-11.604,8.93-12.76,1.723
		c-2.47-15.593-5.122-31.504-3.921-47.347c1.201-15.911,6.187-30.62,12.76-45.035c7.502-16.432,16.432-32.297,19.9-50.225
		c3.49-18.154,0.068-35.833,1.7-53.897c0.091-0.907,0.34-1.7,0.703-2.38c-5.553-0.181-11.128-0.453-16.681-0.793
		c0,29.102-15.457,55.483-30.303,79.848c-16.976,27.832-33.385,54.69-33.521,88.37c-0.136,32.388,12.035,64.3,36.717,85.718
		c12.738,11.06,27.198,20.036,37.51,33.657c2.72,3.604,5.915,7.298,8.182,10.698c1.111-3.83,0.045-7.23-1.428-10.539
		c-6.233-14.097-18.154-24.274-24.818-37.918c-2.448-5.009,2.47-9.927,7.479-7.479c16.432,8.069,28.92,28.286,34.541,45.148
		c4.261,12.828,5.19,30.869-2.606,42.859c4.17-0.181,8.318-0.385,12.488-0.612C557.651,1038.821,583.308,1018.785,604.93,996.279z
		 M601.281,245.352c12.919-14.12,14.709-34.564,7.683-51.993c-7.638-18.948-24.297-23.798-40.978-32.139
		c-10.698-5.349-17.203-15.14-16.455-26.314c-3.15,0.204-6.165,0.272-8.93,0.227c-3.604-0.068-7.978-0.249-12.602-0.748
		c0.113,0.476,0.227,0.929,0.295,1.428c3.536,31.481-28.671,30.325-48.865,41.318c-0.476,9.701-3.15,19.809-5.372,26.404
		c-2.765,8.205-7.321,19.401-13.871,28.014c4.261,8.318,9.814,15.661,16.908,22.007c9.972,8.907,18.608,11.718,31.572,12.262
		c0.68,0.023,1.315,0.204,1.904,0.476c-14.46-19.673-12.194-61.693,5.802-76.199c3.513-2.81,10.539-0.317,8.545,4.986
		c-4.692,12.556-6.867,26.019-6.233,39.459c0.272,6.346,0.975,13.803,4.76,19.152c2.946,4.17,6.935,5.304,11.4,5.938
		c23.163-18.404,16.183-51.63,21.464-77.559c0.816-4.012,7.23-3.966,8.069,0c3.876,18.177,8.363,64.277-8.703,82.477
		c2.606-0.249,5.213-0.589,7.774-1.043c5.893-7.91,11.559-15.82,14.619-25.498c4.012-12.692,3.672-26.314,1.609-39.323
		c-1.065-6.754,8.726-9.814,10.471-2.901c5.009,19.945,5.168,42.836-4.692,60.379C592.487,253.397,597.156,249.862,601.281,245.352z
		 M615.605,309.538c-3.581-6.777-7.071-13.576-10.267-20.534c-6.754,1.496-14.097,7.457-18.54,11.31
		c-5.394,4.692-8.749,9.723-11.672,15.797c6.165,0.295,13.372,1.315,19.718,3.513C601.009,314.071,607.967,311.261,615.605,309.538z
		 M599.173,383.244c3.717-6.822,5.825-19.854,4.578-30.597c-5.757,4.374-14.165,6.573-22.597,7.638
		c1.065,8.839,0.657,18.313,0.544,27.152c5.236-0.839,10.494-2.063,15.775-3.876C598.063,383.357,598.629,383.266,599.173,383.244z
		 M560.439,346.232c5.054,0.068,40.797-1.813,34.405-9.701c-2.833-3.49-12.692-4.42-16.795-5.44
		c-1.768-0.431-3.468-0.861-5.145-1.315c-0.907,2.153-2.629,3.672-5.122,4.669c-22.665,9.157-53.67,9.043-76.063-0.748
		c-2.38-1.043-3.604-3.649-3.853-6.187c-2.924,0.793-6.029,1.655-7.842,3.037c0.159,0.544,0.272,1.133,0.249,1.791
		c-0.023,1.473-0.159,2.901-0.363,4.306c0.408,0.544,0.884,1.111,1.496,1.723c6.845,6.822,19.9,6.913,28.807,7.366
		C526.895,346.572,543.713,346.028,560.439,346.232z M512.005,111.131c2.017,13.939,70.465,13.599,61.852-6.799
		c-3.377-8.023-23.549-9.451-30.756-9.972C531.587,93.543,509.557,94.155,512.005,111.131z M567.579,388.842
		c-0.068-8.907-0.567-18.562,0.408-27.628c-3.876,0.091-7.411,0.045-10.199-0.023c-8.885-0.159-17.747-0.068-26.608-0.045
		c2.289,7.457,1.7,16.749,0.748,24.251c-0.136,1.133-0.249,2.334-0.408,3.558c1.609,0,3.196,0,4.782,0
		C546.976,388.978,557.334,389.363,567.579,388.842z M558.037,321.029c0.227-12.511-1.7-33.113-12.874-34.586
		c-5.961-0.793-19.333,2.946-28.15,1.111c-2.244,11.604-8.091,22.325-11.582,33.861
		C522.023,326.038,541.718,325.925,558.037,321.029z M553.64,80.851c-0.748-5.666-1.337-11.332-1.655-17.021
		c-3.604-0.091-7.23-0.159-10.834-0.181c-1.564,5.372-2.992,10.811-4.261,16.273c3.966-0.499,7.751-0.544,11.083-0.091
		c0.952,0.136,1.745,0.567,2.334,1.179C551.396,80.919,552.507,80.874,553.64,80.851z M523.405,1073.679
		c5.417-37.805-43.244-56.549-62.283-81.956c-17.701-23.617-25.996-54.214-25.09-83.542c2.017-63.665,57.772-105.051,68.266-165.725
		c-5.915-0.453-11.854-0.975-17.769-1.609c-5.711,16.568-16.727,32.343-27.198,45.556c-12.806,16.205-28.467,29.646-45.012,41.884
		c-15.389,11.355-32.365,20.874-46.395,33.974c-14.8,13.803-23.775,31.98-26.676,52.016c-5.349,37.17,18.245,67.994,46.848,88.71
		c19.718,14.279,42.156,22.483,63.371,34.133c10.902,6.006,39.958,20.806,38.575,37.397c11.106,0.159,22.211,0.113,33.317-0.091
		C523.382,1074.178,523.36,1073.929,523.405,1073.679z M519.869,361.032c-0.816,0-1.632,0-2.47-0.023
		c-7.207-0.159-15.253-0.431-22.959-1.836c2.04,9.066,1.587,19.174,1.473,28.92c1.133,0.091,2.266,0.181,3.377,0.227
		c5.802,0.227,11.627,0.385,17.452,0.476c0.385-1.745,0.839-3.49,1.088-5.19C518.781,377.192,517.671,368.33,519.869,361.032z
		 M480.161,386.326c0.34,0.023,0.657,0.068,0.997,0.091c-0.453-10.312-0.34-21.146,2.47-30.257c-2.72-1.065-5.304-2.402-7.683-4.034
		c-0.431,1.519-0.861,3.037-1.247,4.601c-2.063,8.771-1.768,16.772,1.247,24.931C478.121,382.428,479.481,384.218,480.161,386.326z
		 M466.562,183.227c0.476-3.536,2.312-13.078-0.045-16.341c-3.513-4.828-4.442,1.926-6.119,4.714
		c-1.723,2.856-3.898,4.85-6.346,6.21c0.975,11.944-1.587,24.229-8.205,34.337c-2.38,3.672-8.295,7.887-9.565,11.899
		c-2.108,6.777,3.717,7.162,8.341,4.578C457.927,221.191,464.703,197.348,466.562,183.227z M459.627,1072.75
		c6.482-2.266,13.191-3.286,3.649-7.615c-17.407-7.819-34.745-15.933-52.038-24.183c-25.09-11.99-48.661-27.991-66.317-49.794
		c-22.869-28.286-29.804-64.073-17.497-98.614c13.372-37.51,44.717-55.075,75.474-76.856c16.137-11.4,31.164-24.387,44.219-39.255
		c10.108-11.536,16.704-24.41,23.798-37.374c-5.281-0.657-10.562-1.383-15.843-2.153c1.201,8.386-0.113,16.455-4.646,23.889
		c-4.17,6.822-12.851,15.299-21.441,14.845c-2.72-0.136-5.576-2.878-4.465-5.847c2.357-6.21,8.681-10.539,12.715-15.797
		c4.17-5.417,6.187-12.058,7.933-18.585c-7.479-1.179-14.913-2.448-22.302-3.808c-4.714,19.084-17.316,37.442-29.26,52.537
		c-12.806,16.183-28.444,29.645-45.012,41.884c-14.641,10.788-30.008,20.557-42.474,33.952
		c-13.599,14.619-21.056,32.683-23.073,52.492c-2.334,22.665,1.156,45.465,8.771,66.884c16.5,46.485,62.487,48.095,100.835,65.864
		c4.352,2.04,8.613,4.261,12.715,6.777c9.95,6.142,21.214,8.567,31.595,13.962C444.011,1069.622,451.626,1075.538,459.627,1072.75z
		 M434.65,204.306c4.986-7.547,5.983-15.729,6.301-24.319c-6.142-0.521-13.418-2.742-19.786-6.391
		c-1.496,7.094-3.876,14.233-7.411,19.56c2.561,1.587,5.349,2.878,7.865,4.057c4.442,2.108,10.222,3.06,12.942,7.207
		C434.582,204.374,434.605,204.351,434.65,204.306z M381.388,774.165c12.126-13.825,19.22-29.577,28.15-45.125
		c-10.494-2.063-20.874-4.284-31.096-6.618c-4.102,16.047-13.599,31.935-22.37,45.511c-9.904,15.344-21.486,29.396-34.836,41.862
		c-21.939,20.489-51.064,34.292-68.311,59.518c-18.789,27.447-20.852,64.753-10.97,98.048c6.822,23.027,19.356,44.128,36.037,58.724
		c8.953,7.842,19.129,14.347,30.099,18.993c1.904,0.793,27.923,8.794,27.266,6.301c-6.051-22.665-38.689-27.991-52.65-45.443
		c-23.775-29.668-24.863-82.296-13.803-116.882c11.264-35.198,39.482-55.234,68.266-75.61
		C353.306,802.02,368.333,789.056,381.388,774.165z"/>
	<path fill="#76979C" d="M963.871,706.624c-1.881,24.591-8.477,48.525-19.106,68.402c-10.584-34.473-36.785-64.481-60.855-90.931
		c4.533-5.576,8.023-11.536,10.902-17.769c4.057,3.105,8.205,6.097,12.488,8.907c4.012,2.629,9.451-2.674,6.709-6.709
		c-3.989-5.825-8.613-11.378-13.689-16.659c0.952-3.014,1.858-6.051,2.697-9.179c1.995-7.275-8.386-9.746-11.06-3.037
		c-0.385,0.997-0.839,1.995-1.247,2.992c-7.207-6.414-14.913-12.307-22.733-17.701c1.02-2.901,1.904-5.848,2.606-8.794
		c1.473-6.142-7.23-8.409-9.361-2.584c-0.657,1.836-1.405,3.649-2.198,5.462c-2.063-1.315-4.102-2.606-6.142-3.83
		c-12.035-7.321-24.727-13.735-37.827-18.925c-12.715-5.054-26.586-6.913-39.391-11.672c20.262-6.867,43.63,0.045,63.303,5.938
		c18.63,5.576,37.646,12.443,53.919,23.254c19.061,12.647,35.878,29.623,49.364,48.027
		C952.766,676.208,958.976,690.623,963.871,706.624z"/>
	<path fill="#76979C" d="M962.625,666.009c-1.995-3.15-3.989-6.142-5.938-8.953c-14.596-21.056-32.864-40.026-53.897-54.735
		c-18.222-12.76-40.117-20.648-61.308-26.88c-21.667-6.369-48.435-12.216-70.465-4.306c-0.249,0.113-0.453,0.227-0.703,0.34
		c-1.111-2.584-2.81-5.032-4.918-7.026c24.047-15.571,56.707-15.616,83.814-10.426c29.26,5.644,60.719,16.681,81.344,39.187
		C948.323,612.588,958.681,638.517,962.625,666.009z"/>
	<path fill="#76979C" d="M931.257,792.614c0.091,0.499,0.227,0.907,0.363,1.337c-10.199,11.355-23.186,20.308-37.419,26.178
		l-0.431-1.043c2.176-0.884,3.173-4.148,2.198-6.391c-3.309-7.479-9.519-13.961-14.732-20.489
		c6.369-5.689,11.672-12.579,13.576-19.99c0.929-3.626-3.218-7.298-6.595-5.077c-5.757,3.74-10.562,8.499-15.639,13.01
		c-2.788-4.125-5.508-8.295-8.205-12.488c6.074-5.1,9.972-11.967,10.154-21.214c0.091-4.329-5.712-6.89-8.726-3.604
		c-3.672,3.966-7.026,7.547-10.539,10.72c-8.499-12.964-17.293-25.611-27.651-37.238c-4.012-4.488-12.148,1.587-8.454,6.527
		c9.202,12.284,16.976,25.498,24.909,38.621c-2.538,1.337-5.304,2.516-8.409,3.536c-1.473,0.499-2.969,0.952-4.488,1.36
		c-8.386-10.811-16.568-21.758-24.251-33.113c-12.466-18.449-23.934-37.601-34.314-57.296
		c-10.177-19.288-21.668-42.27-20.761-64.617c0-0.249-0.023-0.476-0.045-0.725c0.204-0.249,0.408-0.499,0.589-0.748
		c2.063-1.247,4.012-2.72,5.825-4.329c0.159,0.612,0.408,1.201,0.816,1.768c11.083,15.412,31.028,21.441,46.123,32.184
		c7.162,5.077,14.369,10.199,21.418,15.503c-9.678,5.576-20.172,9.655-29.555,15.707c-3.604,2.334-2.289,8.205,2.221,8.227
		c14.913,0,28.558-5.417,39.958-14.12c7.23,5.847,14.211,11.99,20.761,18.608c0.227,0.204,0.431,0.431,0.635,0.657
		c-7.298,7.026-14.641,13.893-21.01,22.007c-3.377,4.306,0.725,10.607,6.029,7.819c9.542-4.964,18.494-10.72,26.472-17.678
		c10.856,11.944,21.146,24.591,30.643,37.374C915.89,751.296,927.404,770.629,931.257,792.614z"/>
	<path fill="#76979C" d="M893.769,819.086l0.431,1.043c-3.785,1.564-7.638,2.901-11.559,4.034
		c-3.513-2.017-6.867-4.193-10.108-7.366c-3.876-3.785-7.457-7.842-10.924-11.99c0.997-0.431,2.017-0.884,3.014-1.383
		c1.564-0.771,3.196-1.655,4.828-2.629c6.119,7.955,13.191,14.936,21.622,18.245C892.092,819.449,892.999,819.426,893.769,819.086z"
		/>
	<path fill="#F9F5E5" d="M867.002,876.791c9.451,16.409,12.624,35.81,10.652,54.735c-0.861,8.137-2.674,16.183-5.349,23.889
		c-8.93,25.566-26.654,47.415-47.505,64.685c-9.315,7.729-21.735,14.981-32.864,10.245c21.305-19.333,29.804-49.069,33.385-77.627
		c3.218-25.407,3.082-52.288-8.182-75.292c-12.08-24.591-35.221-41.544-57.16-57.954c-25.113-18.766-79.44-55.665-80.528-90.863
		c6.799-2.584,14.188-3.966,21.26-5.757c1.791,16.999,10.856,33.136,24.478,43.516c1.383,1.043,2.969,2.085,4.692,1.949
		c4.896-0.431,4.08-7.887,1.768-12.239c-6.459-12.126-12.942-24.251-19.424-36.4c4.533-1.564,9.089-3.15,13.621-4.737
		c12.307,29.645,25.135,60.107,47.891,82.749C802.816,826.679,846.513,841.207,867.002,876.791z M855.081,970.442
		c15.843-28.24,4.737-68.946-4.646-97.436c-2.312-7.026-13.1-4.17-11.151,3.082c4.102,15.276,7.706,30.937,8.794,46.757
		c1.02,15.389-2.606,29.555-3.694,44.695C843.975,973.32,852.384,975.224,855.081,970.442z"/>
	<path fill="#76979C" d="M883.23,657.17c-3.173,5.19-6.709,10.154-10.698,14.709c-6.595-6.709-13.622-12.942-20.92-18.834
		c3.626-4.216,6.845-8.771,9.61-13.576C868.702,645.203,875.932,651.232,883.23,657.17z"/>
	<path fill="#76979C" d="M861.087,788.784c-0.295,0.181-0.589,0.385-0.884,0.567c-2.652,1.451-5.326,2.652-8.046,3.694
		c-3.853-4.896-7.729-9.768-11.582-14.664c4.08-0.929,8.001-2.13,11.672-3.626c0.453,0.725,0.907,1.451,1.36,2.176
		C855.965,780.579,858.435,784.636,861.087,788.784z"/>
	<path fill="#76979C" d="M860.634,827.971c-4.669,0.295-9.361,0.249-14.029-0.159c-1.02-0.091-1.927,0.023-2.742,0.227
		c-8.885-5.983-18.177-11.491-27.288-17.339l1.881-2.946c0.544,0.363,1.201,0.657,1.949,0.816c8.454,1.791,16.727,2.13,24.841,0.952
		c0.34,0.408,0.657,0.816,0.997,1.247C849.596,814.916,854.695,821.784,860.634,827.971z"/>
	<path d="M850.434,873.006c9.383,28.49,20.489,69.195,4.646,97.436c-2.697,4.782-11.106,2.878-10.698-2.901
		c1.088-15.14,4.714-29.305,3.694-44.695c-1.088-15.82-4.692-31.481-8.794-46.757C837.334,868.836,848.123,865.98,850.434,873.006z"
		/>
	<path fill="#76979C" d="M842.253,626.391c3.128,1.881,6.188,3.876,9.179,5.938c-3.128,4.465-6.731,8.59-10.72,12.284
		c-5.258-3.921-10.607-7.774-16.001-11.514c-9.61-6.709-19.084-13.395-29.51-18.744c-9.474-4.873-19.106-9.338-28.082-15.14
		c-0.748-0.476-1.541-0.725-2.334-0.793c0.091-0.113,0.181-0.227,0.272-0.34c0.861-1.156,1.677-2.402,2.425-3.672
		c10.97,5.757,22.71,8.771,34.564,12.692C816.12,611.75,829.56,618.776,842.253,626.391z"/>
	<path fill="#76979C" d="M835.045,796.784c-4.261,0.317-8.59,0.204-13.01-0.363c-6.12-0.816-8.001,8.273-3.581,11.332l-1.881,2.946
		c-5.621-3.581-11.151-7.298-16.523-11.31c-15.457-11.582-27.606-26.858-37.533-43.312c-6.029-9.972-12.715-19.514-18.132-29.895
		c-5.893-11.31-3.037-22.03-4.102-34.178c-1.133-12.874-9.542-24.093-20.376-30.756c-7.207-4.442-26.11-4.261-34.858-3.853
		c-0.839,0.045-1.768,0.045-2.425-0.499c-0.589-0.521-0.748-1.383-0.861-2.176c-1.859-14.981,3.377-30.711,13.848-41.567
		c2.221,8.681,10.788,14.777,19.673,15.888c8.907,1.111,17.883-2.04,25.43-6.845c5.349,46.327,31.776,88.279,57.636,125.925
		c5.054,7.366,10.312,14.573,15.684,21.69c-5.508,0.725-11.038,1.179-16.568,1.405c-6.527,0.249-6.505,9.768,0,10.131
		c6.731,0.385,15.729,0.499,25.181-0.272C826.75,786.359,830.875,791.572,835.045,796.784z"/>
	<path fill="#F9F5E5" d="M805.014,898.798c5.281,22.007,3.581,45.76-2.425,67.45c-9.429,34.065-38.235,57.138-69.105,71.553
		c-8.59,4.034-17.384,7.298-26.314,10.177c-7.389,2.38-14.891,4.51-22.438,6.618c-9.633,2.674-19.22,5.44-28.988,7.593
		c-10.108,2.198-26.336,1.383-35.334,5.848c4.374-2.176,8.703-4.057,10.222-4.873c11.695-6.278,23.821-11.786,35.81-17.497
		c24.569-11.695,47.437-23.979,67.224-43.312c25.385-24.841,39.255-57.5,32.683-93.129c-7.343-39.754-34.904-62.94-66.974-83.905
		c-19.424-12.692-37.782-26.314-53.987-42.995c-12.556-12.919-20.58-27.379-29.102-42.27c7.026-0.907,14.007-1.949,20.965-3.105
		c1.813,9.768,6.935,19.288,11.944,27.674c5.44,9.134,11.831,19.492,20.648,25.656c5.462,3.808,10.562-3.354,8.273-8.273
		c-4.08-8.817-10.72-16.727-15.616-25.158c-4.193-7.185-7.547-15.117-11.808-22.302c4.714-0.907,9.429-1.881,14.12-2.901
		c8.567,34.677,38.462,65.66,65.524,86.761C759.98,841.502,795.495,859.226,805.014,898.798z"/>
	<path fill="#E8B45D" d="M749.395,1097.409c-0.272,3.762-0.476,7.479-0.385,11.196c-16.749,12.012-44.491,14.12-64.119,16.885
		c-74.182,10.471-150.924,11.332-225.627,7.094c-28.444-1.609-56.526-4.51-84.313-10.267c-0.612-3.377-0.907-6.799-1.043-10.222
		c15.163,7.638,34.065,8.658,50.497,9.428c21.486,0.997,42.791,2.176,64.255,3.649c6.051,0.431,6.142-7.865,1.315-9.791
		c-17.905-7.139-39.142-6.618-58.112-7.615c-20.33-1.088-38.666-5.145-58.18-9.905c-0.204-7.049-0.997-13.984-4.012-20.738
		c22.687,4.896,45.193,11.083,68.447,13.236c38.122,3.536,77.06,3.173,115.295,1.972c65.569-2.085,130.866-10.924,195.053-24.546
		c-0.136,0.476-0.227,0.975-0.204,1.519c0.181,4.012,0.612,7.865,0.975,11.718c-9.157,3.694-18.494,6.278-28.15,8.386
		c-9.723,2.108-19.605,3.105-28.195,8.454c-4.669,2.901-2.765,10.245,2.81,10.358
		C711.772,1108.492,734.731,1107.178,749.395,1097.409z"/>
	<path fill="#F9F5E5" d="M744.953,900.906c11.332,38.031-6.233,70.941-35.425,94.988c-20.013,16.455-42.587,25.317-65.365,36.853
		c-12.942,6.55-26.11,13.417-36.694,23.413c-4.284,4.057-9.134,8.749-10.63,14.234c-6.595,0.589-13.191,1.111-19.786,1.587
		c-1.723-34.926,32.433-51.222,50.452-76.924c17.021-24.206,24.07-55.597,23.662-84.857c-0.431-30.325-10.72-57.591-24.977-83.973
		c-14.777-27.288-28.308-53.149-33.249-83.724c2.425-0.181,4.828-0.408,7.253-0.635c10.788,31.436,38.19,59.336,63.167,78.805
		C694.048,844.584,732.986,860.676,744.953,900.906z M706.264,914.46c0.113,13.689-6.89,23.798-11.695,36.014
		c-1.473,3.762,3.785,7.865,7.071,5.417c28.558-21.26,17.883-59.699,0.249-83.927c-3.808-5.213-12.42-0.521-8.839,5.168
		C700.19,888.509,706.151,900.748,706.264,914.46z"/>
	<path fill="#E8B45D" d="M742.324,581.832c-1.133,6.188-3.989,12.284-7.842,17.384c-0.499,0-0.997,0-1.518-0.023
		c-6.074-0.476-11.718-1.473-17.769-1.609c-0.408-0.136-0.793-0.272-1.247-0.363c-32.75-6.55-58.543-41.408-67.994-71.779
		c-6.414-20.625-5.417-40.955-0.045-60.47c1.065,24.591,8.227,49.092,23.073,68.606
		C687.271,557.604,712.882,575.531,742.324,581.832z"/>
	<path fill="#E8B45D" d="M692.779,297.843c27.175,13.893,37.646,45.465,29.985,74.182c-7.457,28.014-27.515,50.452-40.525,75.859
		c-7.751,15.117-12.511,31.209-12.307,47.369c-4.714-14.981-5.757-31.209-5.281-46.78c0.567-17.633,7.298-32.184,16.137-47.052
		c6.006-10.108,12.647-20.942,16.817-31.889c7.321-15.14,10.199-31.119,0.408-47.415c-13.531-22.529-45.148-25.611-68.516-17.543
		c-2.878-5.462-5.802-10.902-8.567-16.409c10.131,0.34,20.716-1.133,30.62-0.453C665.558,288.664,680.177,291.406,692.779,297.843z"
		/>
	<path fill="#E8B45D" d="M717.347,680.129c6.822,6.618,11.74,15.117,1.269,19.854c-18.222,8.273-39.981,12.171-59.382,16.319
		c-89.435,19.061-183.018,14.324-272.294-3.15c-6.369-1.247-12.896-2.652-18.336-6.188c-5.417-3.558-9.565-9.814-8.749-16.251
		c0.431-3.422,2.833-6.958,6.187-7.275c0.159,0,0.295-0.023,0.453-0.023c1.519,0,2.924,0.635,4.306,1.247
		c80.958,36.196,183.312,36.762,269.869,25.815c23.118-2.924,52.401-6.527,70.555-22.959
		C713.426,685.523,715.602,682.985,717.347,680.129z"/>
	<path d="M694.569,950.474c4.805-12.216,11.808-22.325,11.695-36.014c-0.113-13.712-6.074-25.951-13.214-37.329
		c-3.581-5.689,5.032-10.38,8.839-5.168c17.633,24.229,28.308,62.668-0.249,83.927C698.354,958.339,693.096,954.236,694.569,950.474
		z"/>
	<path fill="#F9F5E5" d="M667.258,690.192c-9.655,2.13-19.514,3.377-27.923,4.442c-5.462,0.703-10.924,1.292-16.432,1.813
		c-2.244-10.448-9.293-18.789-15.775-27.492c-9.497-12.783-16.228-27.696-21.781-42.564c-5.598-15.095-9.836-30.756-12.692-46.599
		c-3.014-16.704-3.105-33.748-6.006-50.361c-0.748-4.216-7.887-4.261-8.59,0c-5.032,30.439,2.516,66.272,12.443,95.033
		c5.122,14.823,11.219,30.28,19.718,43.516c6.391,9.973,16.024,18.63,21.01,29.487c-42.111,3.196-85.038,1.949-126.786-1.722
		c-3.921-0.34-7.842-0.725-11.808-1.133c10.403-12.783,19.582-27.696,22.801-43.766c0.748-3.74-4.057-5.938-6.21-2.606
		c-9.723,15.095-16.432,31.141-28.059,45.08c-12.987-1.586-25.996-3.74-38.711-6.799c39.346-27.764,60.673-75.111,71.326-121.234
		c11.944-51.744,15.503-109.108,10.652-162.121c4.669,0.272,9.338,0.476,14.007,0.612c-0.408,0.612-0.703,1.36-0.771,2.266
		c-2.334,34.088-1.02,68.198-2.425,102.286c-1.496,35.81-8.794,68.855-17.225,103.464c-1.269,5.145,6.301,8.839,8.862,3.74
		c15.412-30.733,19.582-67.382,20.761-101.334c1.247-36.06-0.884-72.119-1.337-108.156c0-0.861-0.227-1.564-0.544-2.153
		c4.624,0.068,9.27,0.091,13.916,0.091c1.156,0,2.312,0,3.468,0.023c-2.788,18.585-3.694,37.51,0.567,55.937
		c1.043,4.533,8.159,4.578,9.202,0c4.08-18.268,2.017-37.102,3.672-55.665c5.576,0.113,11.174,0.136,16.749-0.181
		c-4.397,52.106-0.703,108.269,11.31,158.902C596.544,613.041,621.271,663.901,667.258,690.192z"/>
	<path fill="#F9F5E5" d="M634.825,910.199c0.363,30.665-8.205,63.507-29.895,86.081c-21.622,22.506-47.279,42.542-44.536,76.743
		c-4.17,0.227-8.318,0.431-12.488,0.612c7.797-11.99,6.867-30.031,2.606-42.859c-5.621-16.863-18.109-37.08-34.541-45.148
		c-5.009-2.448-9.927,2.47-7.479,7.479c6.663,13.644,18.585,23.821,24.818,37.918c1.473,3.309,2.538,6.709,1.428,10.539
		c-2.266-3.4-5.462-7.094-8.182-10.698c-10.312-13.621-24.773-22.597-37.51-33.657c-24.682-21.418-36.853-53.33-36.717-85.718
		c0.136-33.68,16.545-60.537,33.521-88.37c14.845-24.365,30.303-50.746,30.303-79.848c5.553,0.34,11.128,0.612,16.681,0.793
		c-0.363,0.68-0.612,1.473-0.703,2.38c-1.632,18.064,1.791,35.742-1.7,53.897c-3.468,17.928-12.398,33.793-19.9,50.225
		c-6.573,14.415-11.559,29.124-12.76,45.035c-1.201,15.843,1.451,31.753,3.921,47.347c1.156,7.207,13.123,5.53,12.76-1.723
		c-0.861-16.341-2.606-32.909-0.839-49.25c2.04-18.744,10.471-35.289,18.222-52.197c12.851-28.036,21.781-64.436,11.4-94.829
		c-0.091-0.249-0.204-0.453-0.295-0.68c4.986,0.068,9.972,0.091,14.936,0.023c7.729-0.113,15.457-0.453,23.186-0.929
		c-0.295,27.515,11.99,53.262,24.365,77.445C620.183,849.571,634.44,877.086,634.825,910.199z M612.953,917.927
		c3.06-22.347-1.02-44.649-16.659-61.535c-4.397-4.76-13.1,1.632-9.157,7.049c11.786,16.115,14.256,36.264,10.358,55.551
		c-1.836,8.998-4.918,17.747-8.998,25.974c-3.83,7.706-9.565,14.755-12.602,22.755c-1.949,5.145,4.556,8.998,8.771,6.709
		C602.392,964.866,610.438,936.263,612.953,917.927z"/>
	<path d="M596.295,856.393c15.639,16.885,19.718,39.187,16.659,61.535c-2.516,18.336-10.562,46.939-28.286,56.503
		c-4.216,2.289-10.72-1.564-8.771-6.709c3.037-8.001,8.771-15.049,12.602-22.755c4.08-8.227,7.162-16.976,8.998-25.974
		c3.898-19.288,1.428-39.437-10.358-55.551C583.195,858.025,591.898,851.633,596.295,856.393z"/>
	<path fill="#E8B45D" d="M608.964,193.359c7.026,17.429,5.236,37.873-7.683,51.993c-4.125,4.51-8.794,8.046-13.825,10.811
		c9.859-17.542,9.701-40.434,4.692-60.379c-1.745-6.913-11.536-3.853-10.471,2.901c2.063,13.01,2.402,26.631-1.609,39.323
		c-3.06,9.678-8.726,17.588-14.619,25.498c-2.561,0.453-5.168,0.793-7.774,1.043c17.067-18.2,12.579-64.3,8.703-82.477
		c-0.839-3.966-7.253-4.012-8.069,0c-5.281,25.928,1.7,59.155-21.464,77.559c-4.465-0.635-8.454-1.768-11.4-5.938
		c-3.785-5.349-4.488-12.806-4.76-19.152c-0.635-13.44,1.541-26.903,6.233-39.459c1.995-5.304-5.032-7.797-8.545-4.986
		c-17.996,14.505-20.262,56.526-5.802,76.199c-0.589-0.272-1.224-0.453-1.904-0.476c-12.964-0.544-21.599-3.354-31.572-12.262
		c-7.094-6.346-12.647-13.689-16.908-22.007c6.55-8.613,11.106-19.809,13.871-28.014c2.221-6.595,4.896-16.704,5.372-26.404
		c20.194-10.992,52.401-9.837,48.865-41.318c-0.068-0.499-0.181-0.952-0.295-1.428c4.624,0.499,8.998,0.68,12.602,0.748
		c2.765,0.045,5.779-0.023,8.93-0.227c-0.748,11.174,5.757,20.965,16.455,26.314C584.668,169.561,601.326,174.411,608.964,193.359z"
		/>
	<path fill="#76979C" d="M605.338,289.004c3.196,6.958,6.686,13.757,10.267,20.534c-7.638,1.723-14.596,4.533-20.761,10.086
		c-6.346-2.198-13.554-3.218-19.718-3.513c2.924-6.074,6.278-11.106,11.672-15.797C591.241,296.46,598.584,290.5,605.338,289.004z"
		/>
	<path fill="#E8B45D" d="M603.752,352.646c1.247,10.743-0.861,23.775-4.578,30.597c-0.544,0.023-1.111,0.113-1.7,0.317
		c-5.281,1.813-10.539,3.037-15.775,3.876c0.113-8.839,0.521-18.313-0.544-27.152C589.586,359.219,597.995,357.021,603.752,352.646z
		"/>
	<path fill="#E8B45D" d="M594.844,336.532c6.391,7.887-29.351,9.768-34.405,9.701c-16.727-0.204-33.544,0.34-50.225-0.499
		c-8.907-0.453-21.962-0.544-28.807-7.366c-0.612-0.612-1.088-1.179-1.496-1.723c0.204-1.405,0.34-2.833,0.363-4.306
		c0.023-0.657-0.091-1.247-0.249-1.791c1.813-1.383,4.918-2.244,7.842-3.037c0.249,2.538,1.473,5.145,3.853,6.187
		c22.393,9.791,53.398,9.905,76.063,0.748c2.493-0.997,4.216-2.516,5.122-4.669c1.677,0.453,3.377,0.884,5.145,1.315
		C582.152,332.112,592.011,333.041,594.844,336.532z"/>
	<path fill="#76979C" d="M573.857,104.332c8.613,20.398-59.835,20.738-61.852,6.799c-2.448-16.976,19.582-17.588,31.096-16.772
		C550.308,94.88,570.48,96.308,573.857,104.332z"/>
	<path fill="#E8B45D" d="M567.987,361.214c-0.975,9.066-0.476,18.721-0.408,27.628c-10.244,0.521-20.602,0.136-31.277,0.113
		c-1.587,0-3.173,0-4.782,0c0.159-1.224,0.272-2.425,0.408-3.558c0.952-7.502,1.541-16.795-0.748-24.251
		c8.862-0.023,17.724-0.113,26.608,0.045C560.575,361.259,564.111,361.304,567.987,361.214z"/>
	<path fill="#E8B45D" d="M545.163,286.443c11.174,1.473,13.1,22.075,12.874,34.586c-16.319,4.896-36.014,5.009-52.605,0.385
		c3.49-11.536,9.338-22.257,11.582-33.861C525.83,289.389,539.202,285.649,545.163,286.443z"/>
	<path fill="#E8B45D" d="M551.985,63.83c0.317,5.689,0.907,11.355,1.655,17.021c-1.133,0.023-2.244,0.068-3.332,0.159
		c-0.589-0.612-1.383-1.043-2.334-1.179c-3.332-0.453-7.117-0.408-11.083,0.091c1.269-5.462,2.697-10.902,4.261-16.273
		C544.755,63.671,548.382,63.739,551.985,63.83z"/>
	<path fill="#F9F5E5" d="M461.122,991.724c19.038,25.407,67.7,44.151,62.283,81.956c-0.045,0.249-0.023,0.499-0.045,0.748
		c-11.106,0.204-22.211,0.249-33.317,0.091c1.383-16.591-27.674-31.391-38.575-37.397c-21.214-11.65-43.652-19.854-63.371-34.133
		c-28.603-20.716-52.197-51.54-46.848-88.71c2.901-20.036,11.876-38.213,26.676-52.016c14.029-13.1,31.005-22.619,46.395-33.974
		c16.545-12.239,32.207-25.679,45.012-41.884c10.471-13.214,21.486-28.988,27.198-45.556c5.915,0.635,11.854,1.156,17.769,1.609
		c-10.494,60.674-66.249,102.059-68.266,165.725C435.126,937.51,443.421,968.107,461.122,991.724z M398.817,962.35
		c3.581,2.244,7.706-2.176,5.689-5.666c-6.981-11.967-16.455-22.823-19.65-36.649c-3.898-16.84,6.165-25.883,13.146-39.573
		c2.312-4.51-2.221-8.386-6.505-6.527c-16.115,7.003-23.458,27.424-21.373,43.924C372.39,935.742,383.632,952.763,398.817,962.35z"
		/>
	<path fill="#E8B45D" d="M517.399,361.01c0.839,0.023,1.655,0.023,2.47,0.023c-2.198,7.298-1.088,16.16-2.04,22.574
		c-0.249,1.7-0.703,3.445-1.088,5.19c-5.825-0.091-11.65-0.249-17.452-0.476c-1.111-0.045-2.244-0.136-3.377-0.227
		c0.113-9.746,0.567-19.854-1.473-28.92C502.146,360.579,510.192,360.851,517.399,361.01z"/>
	<path fill="#E8B45D" d="M481.158,386.417c-0.34-0.023-0.657-0.068-0.997-0.091c-0.68-2.108-2.04-3.898-4.216-4.669
		c-3.014-8.159-3.309-16.16-1.247-24.931c0.385-1.564,0.816-3.082,1.247-4.601c2.38,1.632,4.964,2.969,7.683,4.034
		C480.818,365.271,480.705,376.104,481.158,386.417z"/>
	<path fill="#76979C" d="M466.517,166.886c2.357,3.264,0.521,12.806,0.045,16.341c-1.858,14.12-8.635,37.963-21.939,45.397
		c-4.624,2.584-10.448,2.198-8.341-4.578c1.269-4.012,7.185-8.227,9.565-11.899c6.618-10.108,9.179-22.393,8.205-34.337
		c2.448-1.36,4.624-3.354,6.346-6.21C462.074,168.813,463.004,162.059,466.517,166.886z"/>
	<path fill="#F9F5E5" d="M463.276,1065.135c9.542,4.329,2.833,5.349-3.649,7.615c-8.001,2.788-15.616-3.128-22.665-6.799
		c-10.38-5.394-21.645-7.819-31.595-13.962c-4.102-2.516-8.363-4.737-12.715-6.777c-38.349-17.769-84.335-19.378-100.835-65.864
		c-7.615-21.418-11.106-44.219-8.771-66.884c2.017-19.809,9.474-37.873,23.073-52.492c12.466-13.395,27.832-23.163,42.474-33.952
		c16.568-12.239,32.207-25.702,45.012-41.884c11.944-15.095,24.546-33.453,29.26-52.537c7.389,1.36,14.823,2.629,22.302,3.808
		c-1.745,6.527-3.762,13.168-7.933,18.585c-4.034,5.258-10.358,9.587-12.715,15.797c-1.111,2.969,1.745,5.711,4.465,5.847
		c8.59,0.453,17.271-8.023,21.441-14.845c4.533-7.434,5.847-15.503,4.646-23.889c5.281,0.771,10.562,1.496,15.843,2.153
		c-7.094,12.964-13.689,25.838-23.798,37.374c-13.055,14.868-28.082,27.855-44.219,39.255
		c-30.756,21.781-62.101,39.346-75.474,76.856c-12.307,34.541-5.372,70.329,17.497,98.614
		c17.656,21.803,41.227,37.805,66.317,49.794C428.531,1049.202,445.869,1057.316,463.276,1065.135z"/>
	<path fill="#E8B45D" d="M440.951,179.986c-0.317,8.59-1.315,16.772-6.301,24.319c-0.045,0.045-0.068,0.068-0.091,0.113
		c-2.72-4.148-8.499-5.1-12.942-7.207c-2.516-1.179-5.304-2.47-7.865-4.057c3.536-5.326,5.915-12.466,7.411-19.56
		C427.533,177.244,434.809,179.465,440.951,179.986z"/>
	<path d="M404.506,956.684c2.017,3.49-2.108,7.91-5.689,5.666c-15.185-9.587-26.427-26.608-28.694-44.491
		c-2.085-16.5,5.258-36.921,21.373-43.924c4.284-1.859,8.817,2.017,6.505,6.527c-6.981,13.69-17.044,22.733-13.146,39.573
		C388.051,933.861,397.525,944.717,404.506,956.684z"/>
	<path fill="#F9F5E5" d="M409.537,729.04c-8.93,15.548-16.024,31.3-28.15,45.125c-13.055,14.891-28.082,27.855-44.219,39.278
		c-28.784,20.376-57.002,40.411-68.266,75.61c-11.06,34.586-9.972,87.214,13.803,116.882c13.961,17.452,46.599,22.778,52.65,45.443
		c0.657,2.493-25.362-5.508-27.266-6.301c-10.97-4.646-21.146-11.151-30.099-18.993c-16.681-14.596-29.215-35.697-36.037-58.724
		c-9.882-33.294-7.819-70.601,10.97-98.048c17.248-25.226,46.372-39.029,68.311-59.518c13.35-12.466,24.931-26.518,34.836-41.862
		c8.771-13.576,18.268-29.464,22.37-45.511C388.663,724.756,399.044,726.977,409.537,729.04z"/>
</g>
</svg>
