<?xml version="1.0" standalone="no"?>
<!DOCTYPE svg PUBLIC "-//W3C//DTD SVG 20010904//EN"
 "http://www.w3.org/TR/2001/REC-SVG-20010904/DTD/svg10.dtd">
<svg version="1.0" xmlns="http://www.w3.org/2000/svg"
 width="1080.000000pt" height="1080.000000pt" viewBox="0 0 1080.000000 1080.000000"
 preserveAspectRatio="xMidYMid meet">
<metadata>
Created by potrace 1.16, written by Peter Selinger 2001-2019
</metadata>
<g transform="translate(0.000000,1080.000000) scale(0.100000,-0.100000)"
fill="#000000" stroke="none">
<path d="M5030 10603 c-137 -10 -373 -38 -495 -58 -205 -35 -435 -87 -435 -99
1 -6 33 -33 72 -59 l72 -48 61 19 c33 11 116 32 185 47 209 45 291 66 375 97
84 31 173 52 265 62 52 6 57 5 88 -25 27 -25 32 -36 28 -62 -3 -18 -10 -66
-16 -107 -6 -42 -31 -134 -55 -205 -25 -71 -41 -132 -37 -136 4 -3 65 -4 135
-1 125 4 129 5 123 26 -12 41 -27 128 -23 132 2 2 15 -32 28 -76 l24 -79 40
-5 c80 -10 325 -15 325 -7 0 5 -7 28 -15 51 l-15 43 59 -56 c33 -32 61 -57 63
-57 2 0 64 -9 138 -20 185 -27 194 -26 125 10 -31 17 -62 30 -67 30 -5 0 -24
10 -41 22 -18 13 -32 21 -32 18 -1 -3 -19 2 -40 12 -22 9 -82 31 -133 50 l-93
33 -212 214 c-188 190 -233 246 -169 212 10 -6 65 -17 122 -26 57 -10 156 -36
224 -60 67 -24 184 -57 259 -74 76 -17 178 -43 225 -57 48 -14 97 -28 109 -31
18 -4 23 -15 28 -52 4 -25 10 -57 13 -71 6 -21 166 -180 316 -312 l41 -36 -40
7 c-67 13 -115 33 -216 92 -85 50 -247 115 -258 104 -7 -8 68 -101 91 -112 13
-6 95 -28 183 -49 88 -20 198 -50 245 -66 47 -17 117 -39 155 -49 77 -21 383
-138 456 -175 55 -28 59 -29 59 -9 0 8 5 15 10 15 6 0 10 -8 10 -18 0 -24 38
-51 168 -119 59 -31 145 -80 192 -109 46 -29 86 -52 87 -51 1 2 3 19 5 40 1
20 3 37 4 37 10 0 108 -105 132 -141 36 -53 62 -76 203 -181 57 -42 165 -128
239 -192 74 -64 139 -116 143 -116 5 0 64 53 130 118 189 182 213 202 246 202
16 0 31 -5 33 -11 5 -15 94 -24 102 -11 6 10 -211 214 -359 337 -839 697
-1867 1115 -2945 1195 -122 9 -630 11 -740 3z m2270 -422 c-1 -9 -9 -30 -18
-47 -52 -95 -85 -164 -81 -169 3 -3 25 13 49 35 31 29 47 37 56 30 8 -8 17 -6
28 5 22 22 82 29 89 11 3 -8 -1 -22 -8 -33 -17 -21 -19 -50 -5 -55 7 -2 10
-54 8 -146 l-3 -142 -56 29 c-55 30 -161 53 -301 67 -64 6 -68 8 -78 38 -6 17
-14 27 -18 21 -10 -14 -32 -17 -32 -4 0 7 -10 9 -25 7 -21 -5 -25 -1 -31 28
-12 67 -10 137 6 142 8 3 29 21 47 40 l32 34 -29 59 -30 58 88 3 c246 8 312 6
312 -11z"/>
<path d="M3963 10418 c-17 -4 -67 -30 -110 -57 -101 -62 -123 -69 -130 -42 -3
12 -7 21 -9 21 -8 0 -257 -95 -346 -132 -86 -36 -96 -42 -88 -58 6 -10 10 -23
10 -29 0 -12 -30 -15 -30 -3 0 4 -4 13 -9 21 -8 12 -12 12 -25 2 -9 -8 -16
-11 -16 -7 0 3 -22 -5 -50 -19 -27 -14 -50 -27 -50 -30 0 -3 18 -14 39 -25 22
-11 55 -30 73 -42 l34 -23 -76 0 c-56 0 -82 -5 -102 -18 -26 -18 -26 -18 -63
14 l-37 33 -91 -49 c-116 -61 -260 -150 -430 -264 -161 -108 -186 -129 -168
-140 7 -5 11 -18 9 -29 -3 -19 -6 -19 -38 -8 -36 12 -36 12 -129 -62 l-93 -74
64 -66 c35 -37 94 -101 131 -144 64 -72 71 -77 120 -83 54 -8 79 -26 106 -78
8 -15 19 -27 24 -27 6 0 29 20 51 43 23 24 64 57 91 72 28 16 74 47 104 68
l54 40 -32 24 c-31 24 -32 28 -30 89 1 35 4 64 6 64 2 0 33 -29 68 -65 l64
-64 143 88 c224 137 506 278 692 346 27 10 43 21 37 24 -7 5 13 30 52 69 60
57 67 61 101 55 22 -3 36 -2 36 5 0 6 -11 9 -25 7 -35 -3 -31 9 12 47 21 18
50 45 66 61 16 15 31 27 35 27 3 0 20 15 37 33 17 17 62 62 101 98 57 54 72
74 77 105 13 77 11 81 -48 110 -31 14 -64 27 -73 29 -9 2 -19 4 -22 6 -9 4
-25 7 -48 8 -12 0 -26 9 -30 19 -6 15 -13 17 -39 10z"/>
<path d="M4695 10114 c-77 -30 -202 -86 -277 -125 -143 -73 -154 -75 -215 -44
-23 12 -22 12 14 19 21 3 50 6 64 6 16 0 33 10 47 30 13 17 18 30 12 30 -5 0
-10 -3 -10 -7 0 -5 -19 -8 -42 -8 -24 0 -73 -6 -110 -14 -64 -14 -67 -16 -61
-38 4 -18 2 -24 -8 -22 -19 4 -59 -10 -59 -21 0 -18 36 -70 48 -70 7 0 97 20
200 44 103 24 243 54 312 65 69 12 135 24 148 27 17 3 31 22 53 70 34 77 45
114 33 113 -5 0 -72 -25 -149 -55z"/>
<path d="M5333 9683 c-23 -37 -48 -85 -56 -105 -9 -20 -35 -67 -60 -105 -68
-106 -117 -193 -117 -209 0 -8 12 -19 27 -25 15 -6 41 -17 58 -24 81 -38 185
-69 350 -105 55 -13 104 -25 108 -27 15 -8 -25 -43 -49 -43 -25 0 -45 -21 -25
-28 8 -3 1 -16 -20 -38 l-33 -34 -129 0 c-123 0 -129 1 -134 21 -5 19 -11 21
-52 16 -25 -3 -47 -10 -49 -16 -8 -25 -63 -11 -105 27 -23 21 -49 43 -58 50
-14 11 -31 -12 -132 -185 -63 -109 -124 -214 -135 -233 -333 -591 -317 -561
-300 -572 7 -5 41 -7 76 -4 l62 4 -36 -24 c-20 -14 -71 -43 -114 -64 -42 -22
-84 -48 -92 -57 -14 -16 -147 -244 -300 -513 -26 -47 -48 -94 -48 -105 1 -18
1 -19 11 -2 5 9 19 17 30 17 36 0 95 38 122 79 32 49 34 73 6 112 -12 18 -17
34 -12 43 4 7 94 97 199 199 149 146 194 183 203 174 10 -9 15 -8 25 6 7 9 18
17 25 17 18 0 13 -25 -14 -61 -14 -19 -30 -47 -37 -64 -6 -16 -47 -101 -90
-187 -69 -142 -98 -183 -98 -145 0 8 -4 7 -10 -3 -16 -24 -11 -40 14 -50 17
-6 41 -42 83 -126 l60 -117 43 74 c23 41 55 96 71 122 16 27 29 50 29 53 0 2
-16 4 -36 4 -20 0 -34 5 -32 10 2 6 34 32 72 58 l69 47 130 225 c71 124 150
263 175 310 25 47 53 97 63 112 11 14 19 30 19 34 0 5 -17 26 -37 47 -35 37
-36 39 -13 33 75 -20 86 -19 107 10 18 26 147 257 181 324 26 51 40 64 56 51
9 -7 17 -8 20 -2 3 5 14 8 24 6 9 -2 34 -7 55 -10 l37 -6 -1 -87 c0 -48 -3
-81 -6 -74 -2 7 -14 17 -25 23 -24 13 -11 -11 169 -325 100 -175 111 -191 153
-212 64 -34 332 -136 338 -129 3 3 -9 40 -27 83 -19 42 -48 115 -65 162 -18
47 -46 111 -63 144 l-31 58 29 29 c24 23 27 30 15 35 -19 7 -49 64 -34 64 6 0
8 11 6 24 -6 28 18 46 63 46 l30 0 -52 100 c-50 96 -54 100 -86 100 -28 0 -32
3 -30 23 1 12 6 25 11 29 9 6 -61 94 -131 166 -18 18 -40 43 -49 57 l-16 24
36 -6 c25 -4 36 -2 36 6 0 13 -45 95 -66 121 -15 19 -232 398 -273 476 -16 32
-41 76 -54 97 l-24 39 -40 -69z"/>
<path d="M1798 9182 l-112 -109 209 -206 210 -205 38 36 c20 20 37 42 37 48 0
7 -54 122 -119 254 -66 133 -122 253 -125 266 -4 13 -11 24 -16 24 -5 0 -60
-49 -122 -108z"/>
<path d="M9152 8880 c-40 -17 -78 -30 -83 -30 -6 0 -35 -11 -65 -25 -30 -14
-57 -25 -61 -25 -4 0 -14 -6 -22 -13 -25 -21 -184 -90 -203 -89 -10 0 -17 -3
-15 -8 1 -5 -6 -15 -17 -22 -17 -13 -10 -23 97 -139 64 -68 167 -187 229 -264
62 -76 133 -154 158 -173 51 -39 58 -49 36 -54 -13 -3 -13 -6 0 -22 13 -18 15
-18 32 -3 10 9 25 17 33 17 8 0 3 -10 -14 -24 l-28 -24 47 -74 c26 -40 64 -88
86 -107 28 -24 36 -36 27 -42 -10 -6 -9 -15 6 -42 46 -87 32 -82 242 -85 103
-1 198 -4 210 -5 22 -2 21 -5 -27 -102 -27 -55 -50 -103 -50 -107 0 -7 40 1
55 12 16 12 58 23 52 14 -7 -13 12 -126 24 -140 6 -7 17 -10 25 -7 8 3 25 -2
39 -11 25 -16 25 -18 25 -160 0 -80 -3 -151 -6 -159 -8 -21 -44 -9 -161 50
-51 26 -95 44 -99 41 -3 -3 18 -77 46 -163 51 -154 53 -158 127 -246 82 -98
97 -109 142 -109 30 0 71 -29 71 -51 0 -5 4 -8 9 -5 8 5 38 -101 86 -309 13
-55 30 -118 38 -140 8 -22 31 -85 51 -139 20 -55 45 -149 56 -208 19 -115 32
-142 61 -133 15 5 16 2 10 -21 -4 -15 -12 -29 -18 -31 -6 -2 -99 87 -207 198
-221 229 -203 225 -186 39 5 -58 13 -157 16 -220 4 -63 7 -116 8 -117 0 -1 25
5 54 12 30 8 89 19 133 25 76 11 81 10 109 -12 16 -13 31 -28 34 -35 12 -28
-26 -226 -64 -332 -22 -61 -54 -180 -71 -264 -36 -183 -44 -212 -71 -299 l-22
-68 -61 0 c-38 0 -68 -5 -81 -15 -10 -8 -29 -15 -41 -15 -13 0 -23 -2 -23 -4
0 -33 -90 -355 -125 -446 -13 -36 -51 -136 -84 -222 -33 -86 -85 -211 -115
-278 l-55 -121 137 3 c135 3 137 3 140 26 4 23 4 23 20 -6 9 -16 52 -99 95
-183 43 -85 82 -155 86 -157 15 -5 230 468 266 586 7 23 -41 116 -127 244 -21
31 -38 59 -38 62 0 3 18 15 40 26 27 14 38 25 34 35 -9 21 -15 19 -48 -15 -16
-17 -34 -29 -40 -27 -17 6 -7 39 20 68 13 14 24 34 24 45 0 20 52 79 61 70 3
-3 20 8 39 24 l33 29 -25 33 c-14 18 -43 62 -64 98 -22 36 -48 77 -58 93 -15
23 -16 27 -3 27 8 0 47 -48 87 -107 40 -60 95 -136 122 -170 27 -34 49 -73 49
-85 1 -13 3 -39 6 -58 6 -33 7 -32 25 35 34 127 79 328 103 465 l23 135 -19
150 c-11 83 -24 164 -29 180 -5 17 -11 50 -14 75 -5 41 -4 39 18 -25 14 -38
32 -97 41 -130 12 -41 19 -55 25 -45 8 16 30 298 30 394 l0 58 -86 90 c-47 50
-83 92 -81 95 3 2 26 -3 51 -11 26 -9 62 -16 81 -16 31 0 35 3 35 25 0 24 -3
25 -62 26 -66 1 -56 10 23 23 l36 6 -4 83 c-5 106 -20 295 -34 425 -10 89 -14
102 -30 102 -11 0 -19 2 -19 4 0 2 4 26 10 55 11 56 3 110 -52 351 -18 82 -37
143 -48 155 -13 13 -20 38 -21 75 -4 97 -132 467 -259 750 -99 223 -290 570
-312 570 -22 0 -310 173 -351 211 -11 10 -26 19 -33 19 -16 0 -126 111 -118
119 7 8 47 10 172 10 l104 0 -48 63 c-115 151 -323 398 -333 398 -4 0 -39 -14
-79 -30z"/>
<path d="M1426 8794 c-31 -36 -56 -69 -56 -72 0 -4 52 -54 115 -111 63 -58
125 -115 136 -127 l22 -23 -187 0 c-140 0 -186 3 -186 12 0 7 -9 27 -20 45
l-21 34 -63 -84 c-68 -91 -155 -219 -233 -343 l-50 -80 213 3 212 3 88 -71
c48 -38 91 -70 94 -70 4 0 20 18 35 40 26 38 27 41 11 65 -9 14 -25 30 -35 37
-21 13 -14 33 27 75 26 28 30 43 5 21 -22 -19 -83 -34 -83 -20 0 18 171 136
197 137 7 0 19 9 27 20 13 18 18 18 48 7 19 -6 37 -12 40 -12 2 0 36 37 73 82
38 45 98 112 133 150 61 65 75 98 39 98 -7 0 -53 21 -103 46 -49 25 -100 51
-114 57 -13 7 -85 42 -159 80 -74 37 -138 67 -142 67 -4 0 -32 -30 -63 -66z"/>
<path d="M818 7928 c-35 -53 -159 -298 -151 -298 4 0 4 -4 -2 -8 -5 -4 -23
-34 -38 -66 l-29 -60 24 -18 23 -19 -27 7 c-23 5 -29 1 -46 -33 -13 -25 -17
-45 -11 -58 4 -11 8 -32 8 -47 1 -29 18 -31 63 -7 38 20 52 40 57 79 l6 38 60
-25 c90 -37 179 -132 145 -153 -18 -11 28 -50 59 -50 16 0 41 -15 68 -42 27
-27 46 -39 52 -33 5 6 32 64 60 130 49 115 164 338 266 513 26 45 46 84 44 87
-4 4 -144 -54 -167 -68 -7 -5 -10 -12 -8 -16 3 -4 -7 -8 -20 -9 -14 -1 -38 -9
-55 -18 -29 -15 -31 -14 -36 5 -3 12 -12 21 -19 21 -8 0 -58 26 -112 57 -53
31 -120 69 -148 85 l-52 28 -14 -22z"/>
<path d="M6520 7743 c0 -5 4 -35 9 -68 23 -154 24 -141 -11 -175 -30 -28 -37
-30 -83 -25 -101 12 -163 27 -278 67 -65 22 -120 38 -124 34 -3 -3 9 -30 28
-58 19 -29 45 -73 58 -98 13 -25 32 -52 42 -61 10 -9 16 -19 12 -22 -3 -4 20
-52 52 -108 l57 -101 148 147 c81 81 152 145 158 141 5 -3 12 -17 14 -31 4
-21 2 -24 -13 -20 -27 9 -44 -28 -58 -122 -12 -85 -42 -193 -81 -297 -26 -67
-25 -70 43 -174 41 -63 42 -63 45 -33 3 28 5 30 19 16 11 -12 14 -27 9 -54 -5
-31 0 -50 25 -97 64 -120 142 -244 150 -238 17 10 3 157 -36 382 -3 17 -2 32
2 32 5 0 15 -33 22 -72 7 -40 24 -119 38 -176 13 -56 21 -111 18 -122 -5 -14
-2 -20 9 -20 22 0 20 -10 -9 -40 -32 -34 -32 -36 86 -241 90 -158 119 -198
119 -165 0 23 17 18 160 -49 69 -33 135 -56 165 -60 28 -3 76 -8 108 -11 l57
-6 0 29 c-1 15 -7 57 -15 93 -8 36 -14 78 -15 94 0 24 2 26 15 16 26 -21 34
-6 16 30 -37 73 -137 252 -255 455 -68 116 -208 358 -312 539 -155 270 -194
331 -219 342 -20 9 -24 13 -12 14 12 0 17 6 15 18 -4 17 -15 19 -57 6 l-24 -7
24 32 c24 32 24 32 5 64 -11 18 -41 71 -68 120 -47 82 -58 98 -58 80z"/>
<path d="M3893 7167 c-33 -56 -69 -118 -78 -137 -10 -19 -26 -44 -36 -55 -33
-37 -401 -689 -402 -715 -2 -23 2 -25 38 -26 39 -2 97 -13 163 -33 30 -9 34
-8 44 15 7 15 25 28 46 34 20 5 49 23 67 40 l31 30 43 -66 c40 -60 44 -64 60
-50 9 9 27 17 39 19 35 5 35 12 2 77 -34 68 -24 72 16 8 l26 -40 25 38 c38 57
38 57 39 11 1 -31 -5 -50 -23 -71 -13 -16 -22 -31 -21 -35 40 -78 39 -77 79
-78 21 -1 41 2 44 8 4 5 10 9 15 9 10 0 105 -136 143 -203 l27 -49 -20 -59
c-11 -32 -20 -65 -20 -74 0 -9 27 -62 60 -118 34 -56 58 -108 55 -116 -3 -8
-67 -120 -142 -249 -74 -129 -144 -255 -156 -281 -11 -25 -25 -50 -32 -56 -18
-15 -108 -175 -102 -181 3 -3 26 18 53 46 l48 51 25 -26 c24 -24 25 -26 10
-51 -12 -20 -14 -38 -7 -84 4 -33 4 -70 -1 -82 -7 -21 -9 -19 -14 17 -4 22 -9
66 -13 98 -3 31 -10 57 -13 57 -12 0 -29 -41 -36 -85 -4 -22 -11 -45 -16 -51
-16 -19 -60 -156 -69 -214 -5 -30 -18 -89 -30 -129 -11 -41 -27 -118 -35 -170
-15 -95 -46 -213 -69 -260 -22 -48 -49 -68 -103 -76 -45 -6 -58 -13 -89 -48
-122 -138 -289 -317 -296 -317 -4 0 -5 8 -1 18 5 14 4 15 -8 4 -7 -7 -14 -21
-14 -30 0 -10 -21 -42 -47 -71 -27 -29 -48 -47 -48 -38 0 14 35 65 53 78 5 4
4 10 -2 14 -7 4 -9 20 -5 42 5 26 4 34 -5 29 -17 -11 -13 17 9 68 l19 46 -26
6 c-39 10 -365 -5 -380 -18 -7 -6 -13 -19 -13 -30 0 -27 -30 -35 -46 -13 -19
26 -18 34 9 45 17 7 9 9 -35 9 l-58 1 -37 -70 c-38 -70 -53 -85 -53 -52 0 13
-6 11 -25 -12 -19 -22 -22 -32 -14 -43 9 -9 9 -13 0 -13 -6 0 -11 -9 -11 -19
0 -12 -57 -73 -145 -157 -80 -75 -145 -141 -145 -146 0 -6 430 -5 892 4 19 0
28 7 32 23 5 19 14 23 73 29 140 14 247 37 302 66 30 16 57 27 60 25 2 -3 5
-38 5 -78 l1 -72 665 -1 c366 0 702 2 748 4 l83 5 -43 45 c-38 39 -40 44 -18
38 14 -4 59 -13 100 -22 41 -9 107 -28 145 -42 69 -26 72 -27 389 -30 193 -2
322 0 328 6 6 6 0 27 -15 57 l-26 47 30 29 c24 23 27 30 15 35 -19 7 -49 64
-34 64 6 0 8 11 6 24 -3 15 2 27 14 35 27 17 154 14 182 -4 13 -9 28 -15 32
-14 5 1 32 1 60 0 l50 -1 22 -67 c12 -38 28 -97 36 -132 8 -34 17 -65 20 -68
9 -9 325 -12 330 -4 3 4 13 62 23 129 17 119 18 120 45 124 33 5 53 -5 43 -22
-4 -7 -20 -62 -36 -122 -20 -80 -24 -111 -15 -114 6 -2 97 -3 201 -2 l190 3
103 205 c57 113 112 228 122 256 l18 52 -36 64 c-63 111 -71 118 -138 119 -33
0 -78 4 -101 7 l-43 7 75 40 c41 22 75 43 75 47 0 4 -59 108 -130 230 l-130
223 -206 102 c-162 81 -210 100 -225 93 -10 -6 -20 -10 -23 -10 -10 0 -6 39 4
45 6 3 10 28 10 54 0 79 10 111 33 111 28 0 104 46 118 71 9 17 1 36 -46 117
-32 53 -152 261 -269 462 l-211 365 -3 -53 c-2 -42 -8 -55 -27 -68 -14 -9 -31
-14 -39 -11 -8 3 -19 0 -25 -7 -12 -14 -31 -127 -24 -140 6 -9 -36 2 -52 14
-15 11 -55 19 -55 12 0 -4 23 -52 50 -107 l50 -100 -101 -3 c-55 -1 -99 -6
-97 -11 2 -4 54 -96 117 -204 l115 -197 78 0 c43 0 78 -2 78 -4 0 -4 -57 -132
-66 -147 -2 -3 24 -51 57 -105 34 -54 79 -133 101 -174 69 -129 140 -250 147
-250 4 0 27 30 52 68 l44 67 5 -165 5 -165 86 -145 c146 -247 142 -239 123
-247 -9 -3 -78 -3 -153 0 -75 4 -141 3 -147 -1 -6 -4 -43 -55 -84 -114 -40
-60 -79 -108 -87 -108 -13 0 -12 4 3 28 10 15 36 56 57 92 22 36 46 73 55 83
14 16 6 17 -167 17 -143 0 -181 -3 -175 -12 6 -10 3 -9 -8 0 -17 13 -119 19
-137 8 -5 -3 -37 -3 -71 1 -64 6 -65 23 -2 23 20 0 31 4 27 10 -8 13 18 13 32
-1 5 -5 35 -9 66 -7 l56 3 -45 75 c-25 41 -65 113 -88 160 -24 47 -114 203
-200 348 -145 241 -159 262 -180 256 -29 -7 -41 9 -21 26 8 7 15 21 15 31 0
29 -160 299 -177 299 -8 0 -29 -11 -46 -24 -18 -13 -55 -36 -84 -51 -28 -14
-57 -33 -64 -41 -6 -8 -17 -14 -25 -14 -7 0 -29 -13 -47 -30 -19 -16 -36 -27
-39 -25 -9 9 -168 46 -184 43 -11 -2 17 -59 114 -228 235 -409 208 -371 282
-398 76 -28 128 -42 265 -72 55 -13 104 -25 108 -27 15 -8 -25 -43 -49 -43
-25 0 -45 -21 -25 -28 8 -3 1 -16 -20 -38 -32 -33 -36 -34 -106 -34 -40 0 -73
-3 -73 -7 0 -5 22 -46 49 -93 37 -64 54 -86 72 -88 35 -5 44 -19 22 -31 -13
-6 -42 -7 -84 -1 -35 5 -339 11 -676 14 l-612 5 -50 -41 c-28 -23 -51 -45 -51
-50 0 -4 -4 -8 -8 -8 -4 0 -9 19 -11 42 -1 23 -4 44 -6 46 -2 2 -40 4 -84 5
-45 0 -81 2 -81 4 0 2 23 44 51 93 29 50 49 94 45 97 -3 3 -6 3 -6 -1 0 -3
-19 3 -41 15 -41 20 -41 21 -36 67 8 75 67 446 71 450 7 7 16 -53 26 -172 5
-65 12 -121 15 -124 3 -3 5 42 5 99 1 96 2 102 16 84 10 -13 14 -34 11 -60 -2
-22 0 -80 4 -128 9 -86 8 -89 -21 -147 -36 -72 -32 -79 6 -12 15 26 51 85 79
132 29 47 61 103 72 125 24 47 177 313 255 440 30 50 70 117 87 150 18 33 47
85 65 115 19 30 37 65 40 78 7 20 4 22 -28 22 -44 0 -56 17 -16 24 16 3 44 9
60 12 17 3 35 15 41 27 11 20 12 20 25 3 12 -17 21 -17 197 10 l184 27 36 -27
c22 -17 34 -33 30 -42 -3 -8 -36 -31 -74 -50 -70 -35 -116 -45 -103 -21 6 10
4 10 -7 0 -7 -7 -20 -13 -29 -13 -13 0 -13 1 0 10 13 8 12 10 -2 10 -10 0 -18
-4 -18 -8 0 -4 -26 -5 -57 -2 -59 7 -83 4 -83 -10 0 -12 61 -124 76 -140 9 -9
59 -22 122 -31 l107 -17 51 32 c29 17 70 55 93 84 38 47 45 52 84 53 23 1 45
1 50 0 31 -5 -67 148 -109 169 -16 8 -50 29 -76 47 -31 21 -48 28 -51 20 -2
-7 -8 -9 -12 -5 -4 4 -1 14 7 22 13 13 21 12 67 -9 28 -13 51 -21 51 -17 0 4
-23 47 -50 96 -28 49 -50 93 -50 98 0 6 -6 8 -12 6 -7 -3 -17 -35 -23 -74 -8
-57 -14 -69 -30 -72 -11 -2 -24 -8 -30 -12 -10 -8 -178 -53 -260 -69 -164 -34
-213 -46 -310 -78 -60 -20 -121 -42 -135 -49 -14 -7 -61 -17 -105 -23 -43 -6
-89 -18 -102 -26 -12 -8 -33 -15 -45 -15 -18 0 27 50 200 223 l223 223 137 53
c75 30 183 78 239 108 l102 54 54 92 c197 334 288 500 285 519 -3 21 -75 82
-110 94 -10 4 -16 10 -13 14 3 5 -11 7 -31 5 -20 -2 -41 -9 -45 -17 -19 -29
-14 -200 7 -242 l14 -29 -292 -294 c-161 -162 -301 -298 -310 -304 -16 -9 -16
-5 3 43 11 29 30 78 41 108 19 52 76 174 204 435 54 110 101 228 111 275 2 14
13 71 24 127 16 88 23 106 53 139 32 35 53 99 35 110 -6 4 -89 -127 -89 -141
0 -3 -13 -25 -28 -48 -16 -23 -68 -111 -117 -196 l-88 -154 -28 34 c-27 33
-30 34 -116 39 l-88 5 0 35 c-1 69 11 145 22 143 6 -1 16 4 23 12 13 16 21 0
-138 275 l-90 155 46 84 c52 95 56 84 -53 132 -33 14 -78 38 -99 52 -22 15
-41 25 -43 23 -3 -2 3 -18 12 -35 8 -17 13 -31 11 -31 -3 0 -12 13 -21 29 -19
37 -76 92 -90 87 -49 -20 -48 -20 -42 3 4 17 -1 30 -19 48 -29 28 -30 35 -6
31 19 -3 29 41 15 67 -7 11 -24 -11 -70 -88z m132 -388 c-4 -96 -19 -129 -56
-129 -10 0 -21 -4 -24 -10 -12 -20 -43 12 -38 39 9 50 95 187 120 191 2 0 1
-41 -2 -91z m1795 -2904 c87 -10 99 -16 71 -44 -11 -11 -21 -23 -21 -26 0 -2
17 -7 38 -11 51 -9 52 -10 42 -44 -7 -24 -5 -34 11 -48 16 -16 17 -21 6 -36
-12 -17 -16 -17 -44 -3 -16 9 -41 31 -55 49 -14 18 -47 56 -73 83 -26 28 -55
61 -63 74 -15 22 -15 23 3 18 11 -3 49 -9 85 -12z"/>
<path d="M427 7053 c-50 -150 -105 -333 -120 -403 -5 -20 3 -34 38 -69 48 -48
54 -61 29 -61 -11 0 -14 -6 -9 -20 3 -11 -5 -66 -18 -122 -14 -57 -31 -136
-38 -175 -7 -40 -17 -73 -22 -73 -4 0 -5 15 -2 33 20 117 45 298 45 332 -1 43
-24 85 -39 69 -12 -12 -64 -277 -90 -459 -31 -216 -35 -303 -18 -352 17 -47
10 -68 -9 -26 -11 25 -12 16 -13 -69 -1 -76 2 -98 13 -98 15 0 11 -46 -5 -56
-5 -3 -9 -94 -9 -202 0 -571 122 -1219 332 -1760 34 -89 42 -102 59 -97 20 7
20 7 23 -70 l1 -40 44 2 c71 4 76 -4 41 -70 l-30 -57 71 -143 71 -142 270 3
269 3 52 -45 c63 -53 199 -148 205 -142 4 5 -90 149 -119 181 -9 11 -28 40
-42 65 -13 25 -60 111 -104 191 -89 163 -196 398 -268 589 -25 69 -53 130 -62
137 -8 6 -12 16 -9 22 4 5 3 12 -2 15 -4 2 -9 21 -10 41 -2 20 -18 91 -38 158
-19 67 -50 196 -70 287 -29 136 -44 182 -85 265 -27 55 -53 114 -58 130 -5 17
-21 62 -36 100 l-26 70 58 -57 c32 -32 62 -58 66 -58 10 0 9 54 -2 83 -7 18
-26 31 -76 48 -63 23 -75 33 -278 238 -188 190 -233 246 -169 212 10 -6 65
-17 122 -26 58 -10 157 -36 227 -61 68 -24 131 -44 139 -44 11 0 14 24 14 131
l0 131 -32 -6 c-138 -24 -157 -18 -44 15 l75 22 5 66 c3 36 12 120 20 186 8
66 13 121 11 123 -1 2 -31 -8 -66 -22 -34 -15 -65 -26 -68 -26 -3 0 10 16 29
35 19 19 39 35 46 35 7 0 15 6 17 13 4 9 8 8 16 -3 8 -12 13 -12 23 -2 8 8 8
12 1 12 -7 0 -5 17 7 48 10 26 39 148 65 272 35 168 67 285 126 461 43 131 82
245 85 254 7 18 2 18 -161 0 -30 -4 -96 -27 -165 -60 -172 -80 -160 -81 -160
9 0 74 -1 78 -44 136 l-43 60 -56 -167z m-118 -2162 c11 -42 36 -148 56 -236
21 -88 42 -168 47 -179 13 -24 -2 -34 -41 -28 -31 4 -25 -22 -72 327 -11 83
-24 164 -29 180 -5 17 -11 50 -14 75 l-6 45 20 -54 c11 -30 29 -88 39 -130z"/>
<path d="M5293 7148 c-43 -73 -73 -128 -73 -133 0 -3 50 -5 111 -5 61 0 109 4
107 8 -9 23 -104 182 -108 182 -3 0 -19 -24 -37 -52z"/>
<path d="M5400 6907 c-36 -34 -112 -105 -170 -157 -159 -142 -230 -213 -224
-222 3 -5 11 -5 17 -1 7 4 24 6 39 4 16 -1 28 2 28 8 0 6 7 8 15 5 19 -8 105
13 155 37 21 10 49 19 62 19 13 0 33 7 45 15 12 8 68 38 125 66 56 28 105 53
107 55 4 3 -98 185 -121 217 -12 15 -19 11 -78 -46z"/>
<path d="M5570 6413 c-119 -124 -169 -192 -170 -231 0 -10 12 -12 54 -7 60 8
83 -7 50 -33 -13 -10 -15 -16 -6 -19 20 -8 15 -61 -9 -73 -17 -10 -21 -8 -26
8 -4 17 -59 40 -69 29 -10 -9 172 -337 186 -337 5 0 10 -10 12 -22 5 -34 28
-34 28 0 0 22 10 38 35 61 20 17 39 32 43 32 4 1 18 3 32 5 14 1 39 5 55 8 17
3 55 8 85 11 37 4 77 19 127 46 l73 41 -35 61 c-20 34 -43 77 -52 95 -9 17
-22 32 -29 32 -6 0 -44 -37 -82 -82 -39 -46 -94 -108 -122 -138 l-51 -55 6 56
c12 108 57 257 108 356 15 29 27 57 27 63 0 14 -123 230 -132 230 -3 0 -66
-62 -138 -137z"/>
<path d="M3426 6152 c-6 -10 171 -212 187 -212 5 0 11 9 14 20 3 11 14 20 24
20 10 0 21 5 24 10 3 6 12 10 18 10 7 0 4 -5 -5 -11 -35 -20 -21 -39 27 -37
25 0 45 5 45 9 0 4 22 43 50 86 27 43 50 84 50 91 0 9 -43 12 -184 12 -101 0
-197 3 -214 6 -16 3 -32 2 -36 -4z"/>
<path d="M3213 5999 c-17 -30 -47 -85 -68 -124 -21 -38 -44 -77 -51 -85 -7 -9
-80 -135 -163 -280 -82 -146 -168 -298 -191 -338 -57 -98 -58 -107 -21 -120
16 -6 31 -7 33 -4 7 16 77 61 104 68 16 4 41 21 57 37 20 23 27 26 27 14 0
-18 11 -22 24 -10 4 4 13 8 19 8 42 2 88 24 139 66 74 62 98 75 98 55 0 -20
29 -48 42 -40 5 4 -4 20 -21 38 -17 18 -31 36 -31 41 1 17 72 65 97 65 12 0
46 -9 73 -19 l51 -20 33 52 c18 29 50 87 71 129 36 71 38 79 25 102 -10 20
-18 25 -34 19 -66 -21 -85 3 -210 267 -24 52 -51 104 -59 114 -13 18 -16 16
-44 -35z"/>
<path d="M7496 5790 c-68 -68 -96 -90 -116 -90 -28 0 -81 -41 -62 -48 23 -7
11 -34 -38 -86 -27 -29 -50 -56 -50 -61 0 -7 86 -162 192 -347 21 -38 44 -68
51 -68 7 0 26 9 42 20 17 11 37 20 46 20 9 0 19 9 22 21 5 19 7 20 36 5 17 -9
41 -17 55 -18 13 -1 23 -5 20 -9 -6 -10 9 -19 96 -56 41 -17 77 -28 80 -25 16
21 83 63 110 68 17 4 33 10 36 15 6 11 -64 144 -186 349 -54 91 -125 217 -157
280 -33 63 -66 116 -74 118 -8 1 -54 -38 -103 -88z"/>
<path d="M3405 5860 c-18 -7 -7 -20 87 -113 l107 -106 35 62 c50 88 50 93 27
125 -19 27 -23 28 -63 22 -24 -4 -50 -10 -60 -14 -9 -4 -29 -1 -45 7 -42 22
-66 26 -88 17z"/>
<path d="M2843 5036 c-72 -50 -154 -110 -182 -133 -30 -27 -60 -43 -76 -43
-28 0 -39 -15 -135 -184 -30 -54 -84 -145 -119 -204 -119 -201 -375 -647 -399
-697 -13 -27 -33 -62 -43 -77 -11 -14 -60 -98 -110 -184 -81 -142 -89 -160
-74 -170 10 -7 14 -18 10 -25 -5 -6 -20 -61 -36 -121 -20 -80 -24 -111 -15
-114 6 -2 97 -3 201 -2 l190 3 103 205 c57 113 114 234 128 270 24 62 55 192
69 292 5 31 15 54 32 70 24 22 26 22 37 4 25 -43 103 -119 114 -112 35 21 60
116 31 116 -5 0 -9 7 -9 15 0 8 -4 15 -10 15 -5 0 -10 4 -10 9 0 6 20 13 45
17 25 3 56 14 68 24 18 14 127 195 215 355 10 17 -49 -33 -240 -207 -100 -91
-186 -164 -189 -162 -4 2 0 36 7 76 8 40 15 90 17 110 1 20 27 89 57 152 l55
116 100 -1 c55 0 132 0 172 0 l71 1 39 68 c21 37 39 70 41 74 4 9 -40 53 -53
53 -25 1 -195 120 -195 137 0 14 61 -1 83 -20 25 -22 21 -7 -5 21 -48 49 -47
54 10 115 50 54 73 64 96 42 5 -5 4 -23 -3 -42 -8 -22 -8 -34 -1 -36 5 -2 10
-18 10 -37 0 -27 -5 -35 -30 -45 -16 -7 -30 -16 -30 -20 0 -18 98 -70 133 -70
42 0 51 11 122 145 26 50 65 117 86 149 22 33 39 63 39 66 0 3 -52 19 -115 34
-63 15 -115 32 -115 37 0 5 -12 9 -27 8 -18 -1 -77 -35 -160 -93z"/>
<path d="M7940 5020 c-57 -39 -127 -91 -156 -115 -48 -41 -55 -44 -118 -47
l-66 -3 111 -195 c61 -107 114 -199 119 -204 5 -5 60 -8 122 -8 l113 1 -72
-68 c-40 -37 -73 -72 -73 -78 0 -14 88 -169 103 -181 11 -9 88 22 202 82 17 9
68 34 115 57 141 67 150 72 150 81 0 9 -166 298 -179 311 -8 8 -101 -12 -169
-36 -30 -10 -36 -9 -48 8 -8 11 -20 20 -27 20 -26 1 -197 119 -197 137 0 14
61 -1 83 -20 25 -22 21 -7 -5 21 -48 49 -47 54 10 115 50 54 73 64 96 42 5 -5
4 -23 -3 -42 -8 -22 -8 -34 -1 -36 5 -2 10 -18 10 -37 0 -27 -5 -35 -30 -45
-16 -7 -30 -16 -30 -20 0 -4 23 -23 51 -41 l51 -32 79 10 c44 6 83 13 86 16 4
5 -30 71 -82 156 -27 44 -82 140 -100 176 -11 21 -25 40 -30 42 -6 2 -58 -29
-115 -67z"/>
<path d="M8347 4073 c-103 -102 -187 -189 -187 -192 0 -3 34 -64 75 -136 l75
-130 -182 -8 c-103 -4 -188 -13 -195 -19 -7 -6 -13 -19 -13 -30 0 -27 -30 -35
-46 -13 -19 26 -18 34 9 45 17 7 9 9 -35 9 l-58 1 -37 -70 c-38 -70 -53 -85
-53 -52 0 13 -6 11 -25 -12 -19 -22 -22 -32 -14 -43 9 -9 9 -13 0 -13 -6 0
-11 -9 -11 -19 0 -12 -57 -73 -145 -157 -80 -75 -145 -141 -145 -146 0 -6 430
-5 892 4 19 0 28 7 32 23 5 19 14 23 73 29 141 14 247 37 302 67 l56 29 5 -77
5 -78 243 0 c211 0 241 2 237 15 -3 8 -37 67 -74 130 -37 63 -123 212 -191
330 -68 118 -130 223 -138 232 -22 26 -71 13 -112 -31 -19 -20 -93 -101 -165
-179 -71 -78 -133 -142 -137 -142 -4 0 -5 8 -1 18 5 14 4 15 -8 4 -7 -7 -14
-21 -14 -30 0 -10 -21 -42 -47 -71 -27 -29 -48 -47 -48 -40 0 16 42 79 53 79
5 0 5 6 0 13 -4 6 -8 35 -9 62 -2 69 27 146 167 433 l119 243 -25 49 c-13 27
-28 51 -33 54 -4 2 -92 -79 -195 -181z"/>
<path d="M9390 3048 c-115 -201 -263 -418 -360 -530 -28 -31 -50 -61 -50 -67
0 -5 26 -34 57 -63 163 -152 232 -222 226 -231 -4 -6 -1 -7 6 -2 18 11 60 -32
54 -56 -4 -15 0 -19 21 -19 14 0 26 -4 26 -10 0 -13 -25 -13 -70 0 -19 5 -55
11 -80 13 -53 4 -130 27 -130 38 0 5 -6 6 -12 4 -7 -3 -71 24 -143 60 l-130
65 -72 -72 -72 -72 139 -142 139 -142 -15 -31 c-14 -28 -20 -144 -12 -237 1
-16 61 40 248 231 147 151 233 253 227 269 -4 9 -1 13 7 10 18 -7 50 32 42 53
-4 9 -11 49 -16 89 -7 53 -22 97 -60 174 -27 57 -50 112 -50 122 0 18 8 19
218 12 l217 -6 91 148 c50 82 105 175 123 207 l32 57 -60 0 c-49 0 -62 4 -70
19 -6 10 -57 45 -113 77 -131 74 -242 144 -246 155 -2 5 -11 9 -20 9 -11 0
-43 -47 -92 -132z"/>
<path d="M851 2783 c163 -271 296 -464 448 -653 127 -159 275 -323 279 -311 2
6 11 11 19 11 13 0 13 -3 2 -16 -11 -13 7 -35 128 -156 l141 -141 12 44 c7 24
15 49 20 54 4 6 13 28 20 50 7 22 36 85 64 140 28 55 71 142 95 192 l44 92
-112 117 c-62 64 -153 167 -203 228 -128 157 -168 201 -168 186 0 -8 -12 0
-27 17 -16 16 -41 33 -57 37 -25 6 -92 49 -106 68 -3 3 -39 -8 -80 -25 -87
-37 -102 -46 -96 -56 3 -4 -7 -8 -20 -9 -14 -1 -38 -9 -55 -18 -29 -15 -31
-14 -36 5 -3 12 -12 21 -19 21 -8 0 -58 25 -112 57 -53 31 -115 67 -137 80
-59 34 -71 30 -44 -14z"/>
<path d="M8459 1917 c-125 -114 -192 -172 -202 -176 -7 -2 -48 -32 -92 -66
-78 -60 -269 -192 -384 -266 -74 -47 -485 -257 -576 -294 -38 -16 -72 -30 -74
-32 -3 -2 7 -16 22 -31 28 -30 152 -271 143 -279 -3 -3 -77 -5 -164 -4 -135 2
-161 0 -172 -14 -20 -24 -11 -30 160 -121 14 -8 33 -11 43 -8 9 3 17 1 17 -5
0 -6 5 -11 11 -11 6 0 9 6 6 14 -9 22 26 13 63 -16 l35 -28 -53 0 c-33 0 -54
-5 -57 -12 -4 -9 -30 -12 -89 -11 -90 2 -80 -3 -209 86 -56 38 -127 109 -127
126 0 5 50 10 112 10 117 1 148 12 148 52 0 18 -127 149 -145 149 -6 0 -91
-24 -191 -54 -394 -119 -879 -190 -1292 -189 -182 0 -202 -2 -197 -16 11 -26
45 -194 45 -221 0 -37 28 -72 50 -65 16 5 17 2 11 -21 -4 -15 -12 -29 -18 -31
-6 -2 -94 82 -196 187 l-186 192 -128 19 c-241 36 -408 69 -558 108 -82 22
-151 39 -152 37 -2 -2 28 -33 67 -69 38 -37 70 -69 70 -72 0 -3 -82 -5 -182
-5 l-183 0 -59 123 c-32 67 -62 129 -66 136 -3 8 -65 40 -136 71 -141 62 -334
157 -459 227 -78 44 -375 232 -385 244 -16 18 -122 90 -127 85 -7 -6 1 -17 69
-97 44 -51 61 -89 40 -89 -15 0 -52 37 -45 44 4 4 0 4 -9 1 -12 -5 -17 0 -20
16 -2 15 -11 23 -27 26 -14 2 -33 10 -42 19 -16 14 -20 10 -60 -50 l-43 -66
-31 30 c-18 17 -47 35 -67 40 -21 6 -39 19 -46 34 l-11 25 -58 -15 c-32 -8
-73 -20 -91 -25 -17 -6 -41 -7 -52 -4 -11 4 -33 -1 -52 -12 -37 -21 -115 -90
-108 -96 282 -240 572 -446 852 -605 80 -45 109 -57 117 -48 5 6 26 17 46 25
20 7 63 28 96 47 34 19 65 31 71 28 6 -4 8 -24 5 -47 -8 -60 -2 -67 59 -67 65
0 67 -6 24 -85 l-30 -56 67 -30 c390 -175 858 -316 1281 -384 141 -23 156 -22
303 28 131 45 194 60 294 72 46 5 53 3 82 -25 30 -28 31 -33 26 -85 l-6 -55
122 0 c66 0 121 3 121 6 0 4 -37 45 -81 92 -75 79 -90 109 -41 83 10 -5 63
-17 118 -26 55 -9 170 -40 260 -70 105 -36 178 -55 209 -55 111 0 514 73 753
136 179 47 476 144 467 152 -3 3 -20 11 -38 17 -33 10 -45 41 -14 39 9 -1 17
2 17 7 0 5 5 9 11 9 5 0 7 -4 4 -10 -8 -13 11 -13 36 0 15 8 19 7 19 -3 0 -9
14 -17 36 -20 42 -7 205 59 455 183 297 148 594 332 843 522 149 114 158 132
67 133 -27 0 -47 4 -44 9 3 5 -9 6 -28 4 -43 -7 -111 25 -103 47 4 10 0 15
-12 16 -44 3 -63 7 -81 14 -10 5 -21 9 -25 10 -5 2 -10 4 -13 5 -3 1 -11 3
-17 4 -13 1 -24 74 -23 146 l0 35 89 5 88 5 57 -61 c111 -118 202 -234 195
-247 -4 -6 5 -1 20 13 21 19 25 30 20 53 -3 16 -12 61 -19 100 -8 40 -25 104
-40 142 -36 98 -138 305 -150 305 -5 0 -31 -19 -56 -43z m-5789 -777 c36 0 51
-34 55 -129 l5 -92 -24 18 c-26 20 -94 138 -99 174 -4 27 22 54 38 38 5 -5 16
-9 25 -9z m5120 0 c36 0 51 -34 55 -129 l5 -92 -24 18 c-26 20 -94 138 -99
174 -4 27 22 54 38 38 5 -5 16 -9 25 -9z m-3425 -551 c39 -11 133 -33 210 -49
157 -33 321 -83 289 -88 -12 -2 -66 6 -120 17 -54 11 -135 25 -179 31 -168 22
-309 50 -323 64 -21 21 2 60 31 51 12 -3 54 -15 92 -26z m2095 -65 c74 -51
153 -108 175 -127 l40 -36 -65 0 c-88 1 -102 7 -145 59 -21 25 -64 62 -97 83
l-59 37 -296 -45 c-162 -25 -297 -44 -300 -41 -10 10 171 56 545 139 28 6 52
15 52 20 0 12 0 12 150 -89z"/>
<path d="M2212 1749 c-51 -56 -90 -104 -87 -107 6 -7 428 -2 435 4 12 13 -43
84 -105 136 -38 32 -73 58 -77 58 -15 0 -8 -29 10 -39 9 -6 12 -11 5 -11 -6 0
-15 5 -18 10 -3 6 -14 10 -24 10 -10 0 -21 9 -24 20 -3 11 -9 20 -14 20 -5 0
-51 -46 -101 -101z"/>
</g>
</svg>
